<svg xmlns="http://www.w3.org/2000/svg" viewBox="0 0 500 500"><g id="freepik--Grass--inject-18"><ellipse id="freepik--Floor--inject-18" cx="250.8" cy="320.1" rx="131.91" ry="235.98" transform="translate(-70.07 569.92) rotate(-89.83)" style="fill:#3331E7"></ellipse><ellipse id="freepik--floor--inject-18" cx="250.8" cy="320.1" rx="131.91" ry="235.98" transform="translate(-70.07 569.92) rotate(-89.83)" style="opacity:0.4"></ellipse></g><g id="freepik--Clouds--inject-18"><g id="freepik--clouds--inject-18"><path d="M190.8,129l-7.14,4.12c0-.32.06-.64.06-.95v-2.06c0-3.69-2.59-5.18-5.77-3.34a11.13,11.13,0,0,0-3.44,3.31c-.53-4.63-4.16-6.35-8.57-3.8-4.77,2.75-8.64,9.45-8.64,15v3.1a8.08,8.08,0,0,0,.74,3.58l-5.94,3.43a7.09,7.09,0,0,0-3.2,5.54c0,2,1.44,2.87,3.2,1.85l38.7-22.34a7.06,7.06,0,0,0,3.2-5.54C194,128.82,192.57,128,190.8,129Z" style="fill:#ebebeb"></path><path d="M138.68,99.75l-3.94,1.51V92.58c0-6.87-5.49-8.52-11.45-5.08h0c-6,3.44-10.78,11.8-10.78,18.68v1.26a5.79,5.79,0,0,0-5,.77h0a17.16,17.16,0,0,0-7.76,13.44v.58l-5.49,3.17a11.3,11.3,0,0,0-5.11,8.85c0,3.26,2.29,4.58,5.11,2.95l44.43-25.65a11.3,11.3,0,0,0,5.11-8.85C143.79,99.44,141.5,98.12,138.68,99.75Z" style="fill:#ebebeb"></path></g></g><g id="freepik--Pool--inject-18"><g id="freepik--pool--inject-18"><polygon points="23.6 306.96 238.17 430.84 411.47 330.79 196.9 206.91 23.6 306.96" style="fill:#fafafa"></polygon><polygon points="238.17 421.31 386.71 335.55 196.9 225.97 48.36 311.73 238.17 421.31" style="fill:#3331E7"></polygon><polygon points="386.71 335.55 394.96 330.79 196.9 216.44 196.9 225.97 386.71 335.55" style="fill:#ebebeb"></polygon><polygon points="196.9 216.44 40.17 306.92 48.36 311.73 196.9 225.97 196.9 216.44" style="fill:#e0e0e0"></polygon><polygon points="196.9 225.97 196.9 273.61 345.45 359.37 386.71 335.55 196.9 225.97" style="fill:#fff;opacity:0.7000000000000001"></polygon><polygon points="196.9 225.97 196.9 273.61 89.62 335.55 48.36 311.73 196.9 225.97" style="fill:#fff;opacity:0.5"></polygon><polygon points="196.9 273.61 89.62 335.55 238.17 421.31 345.45 359.37 196.9 273.61" style="fill:#fff;opacity:0.6000000000000001"></polygon><polygon points="238.17 430.84 238.17 435.61 411.47 335.55 411.47 330.79 238.17 430.84" style="fill:#e0e0e0"></polygon><polygon points="23.6 306.96 23.6 311.73 238.17 435.61 238.17 430.84 23.6 306.96" style="fill:#ebebeb"></polygon><g style="opacity:0.30000000000000004"><path d="M242.94,413.87a12.48,12.48,0,0,1-3.83-.43,28.68,28.68,0,0,1-2.89-1.61c-2.5-1.15-6.12-.67-9.3-.46a47.57,47.57,0,0,1-6,0l4.68,2.71a13.81,13.81,0,0,1,3-.58,7.56,7.56,0,0,1,2.92.19c2.07.59,3.64,2.34,5.69,3,2.38.73,5.1-.14,7.37.9l.06,0,8.86-5.12c-.21.1-.42.19-.64.27C250,413.85,246.36,413.89,242.94,413.87Z" style="fill:#fff"></path><path d="M372.74,336.63c-.88-1.73-1.35-3.68-2.52-5.22-2.75-3.67-8.4-3.88-11.57-7.21-1.48-1.54-2.53-4.23-2.13-6.08l-4.62-2.66a11.3,11.3,0,0,0-1.46,3c-.53,2.43,1.41,4.85,4,6.78s5.93,3.53,8.77,5.34,5.32,4,5.68,6.46c.32,2.12-1.07,4.3-3.68,5.8A19,19,0,0,1,355.17,345c-4.85-.26-9.79.13-14.65-.55a32.26,32.26,0,0,1-7.73-2,27.62,27.62,0,0,1-3.56-1.8c-1.09-.64-2.29-.94-3.36-1.67-1.31-.88-2.21-2-2-3.19s1.43-2.13,2.16-3.21c1.62-2.45.3-5.46-3.17-7.17-1.75-.85-4.2-1.65-4.13-3s2.46-2,4.39-2.65c4.07-1.36,7.39-3.46,9.33-5.94.88-1.14,1.49-2.33,2.48-3.44a8.37,8.37,0,0,1,4-2.41l-5.7-3.29A5.11,5.11,0,0,1,332,307a4.27,4.27,0,0,1-4.59,1.06c-1.64-.69-2.57-2.41-4-3.45-3.16-2.26-7.74-.66-11.27-2.24-4.1-1.83-5.26-7-7.86-10.64a20.72,20.72,0,0,0-9.12-6.67c-3.53-1.48-7.25-2.41-10.84-3.71a2.27,2.27,0,0,1-1.26-.85c-.48-.84-.06-3,.45-4.55l-14.66-8.46c-1.73-.62-3.45-1.31-5.21-1.78-4.48-1.19-9.2-1-13.83-1a1.42,1.42,0,0,1-.74-.14c-.41-.26-.43-.83-.45-1.3a10.29,10.29,0,0,0-2.07-5.93,1.67,1.67,0,0,1-.48-1.17c.12-.56.8-.77,1.37-.85l.3,0-4.27-2.47-6.4-.28a22.11,22.11,0,0,1-7.43-1.18c-2.74-1.1-4.92-3.23-7.51-4.64-5.29-2.9-11.72-2.52-17.71-1.74a3,3,0,0,1-1.9-.17c-1-.64-.85-2.19-1.11-3.39a5.86,5.86,0,0,0-3.13-3.55c-1.42-.77-3-1.27-4.37-2.14a2.26,2.26,0,0,1-.92-.92c-.54-1.17.78-2.31,1.92-2.92a62.9,62.9,0,0,1,6.68-3.25L196.9,226l-14.72,8.49c.3,0,1,.1,1.32.14a27.42,27.42,0,0,1,12.06,4.65c2.26,1.71,3.78,4,2.62,6-.66,1.14-2.1,2.09-3.1,3.15s-1.57,2.45-.41,3.46c1.62,1.43,5.49,1.3,7.56,2.51a1.41,1.41,0,0,1,.73.77c.14.79-1.38,1.27-2.45,1.77a4,4,0,0,0-2.24,2.2,6.18,6.18,0,0,1-.37,1.32,1.9,1.9,0,0,1-1.56.91,5.41,5.41,0,0,1-2.73-.87c-3.11-1.43-7.9-.44-11.51-1.39a18,18,0,0,1-3.32-1.35c-4.16-2-9-3.44-13-5.51a17.51,17.51,0,0,1-6-4.83L139.68,259a11.19,11.19,0,0,0,1.23,7c.72,1.22,1.73,2.55,1.28,3.89a4,4,0,0,1-2,2,6.4,6.4,0,0,1-3.4,1.23c-1.47,0-2.7-1.07-3.9-1.94a28,28,0,0,0-7.7-3.79L110.25,276a8.69,8.69,0,0,0-.41,1.79,9.49,9.49,0,0,0,2,5.71c.67.87,1.49,1.63,2.12,2.54a3.94,3.94,0,0,1,.79,3.12c-.43,1.63-2.27,2.46-3.93,2.72-1.92.31-3.88.18-5.81.45a7.1,7.1,0,0,0-5,2.61,5.12,5.12,0,0,1-1.3,1.63,2.78,2.78,0,0,1-1.69.26c-2.59-.24-5-1.5-7.42-2.35a25.53,25.53,0,0,0-9-1.34l-32.21,18.6,1.87,1.08c.49-.22,1-.41,1.35-.6,1.36-.66,2.72-1.29,4.11-1.87,2.27-1,4.75-1.83,7.18-1.36s4.54,2.3,6.75,3.62c3.75,2.27,8.16,3.12,12.37,4.39,2.17.65,4.57,1.69,5.29,3.84A5.74,5.74,0,0,1,86,326c-1.1,1.46-2.54,2.64-3.65,4.1-.23.3-.42.62-.63.95l3.68,2.12a7.29,7.29,0,0,1,1-2.17c1.34-2.27,2.94-4.49,3.77-6.84a6.88,6.88,0,0,0-.91-7,11.19,11.19,0,0,0-4.2-3c-2.91-1.26-6.56-1.81-9.7-2.86a13.59,13.59,0,0,1-5.73-3.3,3.5,3.5,0,0,1-.54-4.57c1.08-1.51,3.45-2.58,5.8-3.5a30.3,30.3,0,0,1,8.66-2.29c3.17-.27,6.75.31,8.5,1.87,1.35,1.18,1.44,2.71,2.64,3.94s3.73,2.15,5.94,3,4.43,2,4.89,3.49c.42,1.35-.68,2.7-.91,4.08-.36,2.1,1.35,4.15,3.33,5.94s4.3,3.49,5.43,5.51a3.06,3.06,0,0,1,.07,3.37c-.74,1.05-2.34,1.8-3.75,2.6a14.49,14.49,0,0,0-3.63,2.67c-1.09,1.18-1,2.55-1.61,3.93a4.81,4.81,0,0,1-2.85,2.49,8.49,8.49,0,0,1-2.67.41l11.5,6.65a27.78,27.78,0,0,1,8.91,1,11.29,11.29,0,0,1,3.62,1.39,24,24,0,0,1,2.65,2.49c5.64,5.4,15.19,5.11,20.54,10.8,2,2.14,3.19,4.9,4.51,7.55l14.94,8.62a26.08,26.08,0,0,1,3.31-2c1.83-.82,2.69-2.29,2.13-3.58a1.53,1.53,0,0,1-.23-.8,1.15,1.15,0,0,1,.43-.58c1.42-1.22,4.54-1.65,6.75-.93,1.85.59,2.93,1.79,4.77,2.39a17.36,17.36,0,0,0,6.46.25,24.18,24.18,0,0,1,4.5-.11,5.33,5.33,0,0,1,3.55,1.44c.61.83.2,1.76.33,2.65.23,1.65,2.31,3,4.79,3.87a41.7,41.7,0,0,0,8.16,1.49,41.73,41.73,0,0,1,8.15,1.49,13.77,13.77,0,0,1,4.08,2.13,1.76,1.76,0,0,1,.81,1.11,1.62,1.62,0,0,1-.46,1l-1.52,2.05a7.22,7.22,0,0,1-2.1,2.05,13.39,13.39,0,0,1-5,1.32c-4.39.52-9.55.28-12.43-1.69-1.61-1.09-2.23-2.57-3.55-3.79a15.27,15.27,0,0,0-7.8-3.23,30.41,30.41,0,0,0-9.71.19c-.95.17-1.89.37-2.82.59l4.21,2.43a7.73,7.73,0,0,1,2.21-.5,26.26,26.26,0,0,1,6.85.08,11.13,11.13,0,0,1,3.18,1,6.6,6.6,0,0,1,2.75,2.4c.33.54.53,1.14.81,1.71a7.66,7.66,0,0,0,1.86,2.61c.65.56,1.18.59,1.45,1.49a2.84,2.84,0,0,1-.3,2.1l3,1.75a11.48,11.48,0,0,1,1-.89,11,11,0,0,1,7.1-2.75l-.59.11a23.91,23.91,0,0,0,13.33-5.61c1.39-1.13,2.7-2.35,3-3.71s-.46-2.91-2.5-3.64c-1.13-.39-2.52-.49-3.69-.86s-2.19-1.17-1.63-1.87a3.77,3.77,0,0,1,2.1-.84c6.71-1.25,14.56-.45,20.41-2.69,3.34-1.29,5.52-3.42,8.88-4.7a21.63,21.63,0,0,1,13.48-.25,17.75,17.75,0,0,1,4.76,2.44c2.14,1.49,3.84,3.31,3.92,5.25s-1.82,4-5,4.61c-2.7.52-5.59,0-8.37-.33a48.44,48.44,0,0,0-8-.23,17.5,17.5,0,0,0-6.31,1.26c-2.89,1.38-3.44,3.91-2.33,6s3.54,3.79,5.89,5.48c2.92,2.11,5.86,4.34,7,7a5.07,5.07,0,0,1-2,6.3l9.24-5.35c-1.16-1.65-1.77-3.69-3-5.31-1.68-2.2-4.36-3.4-7-4.32a11.74,11.74,0,0,1-3.75-1.76,3.55,3.55,0,0,1-1.36-3.69c.53-1.57,2.37-2.22,4-2.46,6.14-.89,12.4,1.14,18.58.5,2.18-.24,4.42-.78,6.54-.19a24.32,24.32,0,0,1,4.06,2,12.53,12.53,0,0,0,6,1.33L303,383.9c0-1.64.08-3.29.23-4.92a4.51,4.51,0,0,1,.37-1.63,1.66,1.66,0,0,1,1.28-1,2.43,2.43,0,0,1,.92.18c1.7.56,4.48,1,6.61,1.9l3-1.74c-3.17-.92-5.73-2.45-8.88-3.41-1.62-.51-3.74-.83-5.23-.2a3,3,0,0,0-1.68,1.87,7.71,7.71,0,0,0-.41,3.45,27.28,27.28,0,0,1,.52,3.56c-.08,2.57-2.75,5.26-7,5.93a15.64,15.64,0,0,1-9.09-1.48,10.93,10.93,0,0,1-4.85-4.85l-.17-.83c-.5-2.79-3.38-5.4-7.54-6.86a29,29,0,0,1-3.41-1.24c-1-.52-1.75-1.3-1.48-2.06a4,4,0,0,1,.87-1.1,3,3,0,0,0,.19-3.9c-.59-.78-1.5-1.76-.5-2.38a3.52,3.52,0,0,1,2.55-.12,7,7,0,0,1,2,1.09,13.37,13.37,0,0,0,6.2,2.37c4.51.45,8.44-1.68,11.53-3.63l4.89-3.11a9,9,0,0,1,5.22-1.76,23.65,23.65,0,0,1,3.56.73,25.89,25.89,0,0,0,4.52.29,47,47,0,0,1,19,4.2,21.54,21.54,0,0,1,4.94,3.18c.28.25.53.5.78.75l5.33-3.07a13,13,0,0,0-4.78-2.21,9.06,9.06,0,0,1-2.19-.44,1.78,1.78,0,0,1-1.21-1.7c.16-1.27,1.88-1.45,3.16-1.6a8.25,8.25,0,0,0,7-7.46c0-.64,0-1.37.54-1.77a2.06,2.06,0,0,1,1.28-.32l20.33-.29c1,0,2.21-.12,3.54-.21l12.14-7A11.42,11.42,0,0,1,372.74,336.63Zm-84-50.54a25.45,25.45,0,0,1,5.9,2.17c8.23,4.59,5.41,13.21,13.44,17.91a12.13,12.13,0,0,0,6.24,1.7c2.15,0,4.19-.74,6.32-.59,2.43.17,3.73,1.12,4.4,3.49,1.17,4.15-3.55,6.84-6.85,8-3.86,1.37-8.68,1.77-12.18,3.43-1.81.87-3.72,2.15-6,1.81a3.38,3.38,0,0,1-2.82-2.09c-.33-.92-.23-1.87-.59-2.77-.61-1.5-2.46-2.73-4.45-3.75-5.7-2.93-13.19-4.89-17.13-8.66-.7-.67-1.28-1.48-.8-2.2,1-1.53,5.09-1.15,7.24-2.21s1.47-3.13.54-4.74-1.91-3.23-2.86-4.85a7.56,7.56,0,0,1-1.4-3.54,3.49,3.49,0,0,1,2.42-3.22C282.54,285,286,285.39,288.7,286.09Zm-37.91,58.39c.9,1.4,1.81,3.06.38,4.3a8,8,0,0,1-3,1.3,17.23,17.23,0,0,1-5.1.72,21.86,21.86,0,0,1-4.36-.74c-2-.66-4.75-2.37-6.69-3.07-1.37-.51-3.26-1-4.67-1.45s-2.62-1.3-2.53-2.24c.11-1.14,1.94-1.91,3.28-2.74,3.44-2.15,3.88-5.69,1-8.11-.9-.75-2.06-1.4-2.84-2.2s-1.06-1.85-.15-2.6c1.57-1.28,5-.75,7.59-1.19,3.64-.6,5.4-3.08,8.82-4s7.62-.09,11.09.89a42.39,42.39,0,0,1,10.24,4c2.83,1.76,4.77,4.12,4.43,6.51S265,338.6,260.92,339c-1.77.2-3.58.05-5.38.08a9.15,9.15,0,0,0-4.85,1.11C249.11,341.39,249.89,343.09,250.79,344.48ZM172,314.9a23,23,0,0,0-6.67-4.06c-2.41-1-5.12-1.76-7.35-2.89s-4-2.76-3.63-4.46c.33-1.48,2.28-2.73,4.62-3.36a24.13,24.13,0,0,1,7.59-.58,38.12,38.12,0,0,1,13.91,3.32c1.51.72,3,1.62,3.27,2.74a4.66,4.66,0,0,1-.36,2.45,3.68,3.68,0,0,0,2.6,4.56c1.7.63,3.9.61,5.82,1s3.73,1.61,2.75,2.64a8.08,8.08,0,0,1-1.37.89c-1.55,1.07-1.06,2.64-.84,4a8.54,8.54,0,0,1-1.31,5.81,2.5,2.5,0,0,1-.32.51c-2.49,2.1-4.11,5-8.34,5.71a10.44,10.44,0,0,1-7.67-1.94c-2.19-1.68-3.15-3.9-2.57-6s2.42-3.83,2.47-5.84C174.67,317.81,173.53,316.26,172,314.9Zm-25.37,1.66a4.69,4.69,0,0,0-2.08-1.71l-6.49-3.65c-1.29-.73-2.67-1.56-2.73-2.61,0-.78.71-1.52,1.67-2.08a13.89,13.89,0,0,1,11.2-.32c2,1,3.19,2.42,4.92,3.57a31.44,31.44,0,0,0,7.61,3.12,32.18,32.18,0,0,1,7.64,3.1c2.07,1.36,3.29,3.29,2.29,5-.73,1.22-2.5,2.21-2.94,3.48s.22,2.78-1.61,3.41c-1.21.41-2.73.08-4.13,0-2.65-.08-5,.9-7.5,1.4a16,16,0,0,1-8.59-1.12,10.91,10.91,0,0,1-3.81-3.08,3,3,0,0,1,.59-4.06C144.25,319.55,147.4,318.24,146.65,316.56Zm47.53-17c.34-2.37,4.42-4.22,8.54-4.24s7.95,1.56,10,3.63c1.68,1.72,2.25,3.72,3.38,5.58a17.55,17.55,0,0,0,5,5.11,14.51,14.51,0,0,0,4,2c3.57,1.07,7.86.62,11.87.41a41.07,41.07,0,0,1,8.6.26c2.8.45,5.44,1.38,6.94,2.81,1.05,1,1.93,2.59.87,3.59s-3.41,1-5.1.32a4,4,0,0,0-1-.12,28.05,28.05,0,0,0-7.49,1c-2.81.85-5,2.24-7.77,3.17s-6.51,1.29-8.91.08c-3.42-1.72-1.54-5.09-3.68-7.4-1.53-1.64-4.81-2.46-7.92-2.94a42.57,42.57,0,0,0-7.43-.59c-2.39.05-4.77.37-7.14.25a15.6,15.6,0,0,1-6.52-1.69c-1.2-.65-2.18-1.61-1.74-2.53.65-1.34,3.73-1.7,5.17-2.81C196,303.85,193.9,301.57,194.18,299.57Zm-1.71,38.12c1.75-1.8,2.12-3.94,2.46-6,.58-3.6,1.16-7.18,1.75-10.78a6.6,6.6,0,0,1,1.62-3.9c1.51-1.53,4.59-2.49,7.64-2.38s5.91,1.26,7.1,2.88a11.38,11.38,0,0,1,1.25,3.4,10,10,0,0,0,3.58,4.66c1.1.84,2.48,1.91,1.58,2.82s-3.18.76-5,.89a10.42,10.42,0,0,0-7.07,3.28,11.24,11.24,0,0,0-2.18,5.3c-.3,1.34-.59,2.69-.89,4a5,5,0,0,1-1,2.46c-1.32,1.49-4.46,2.3-7.35,2.11s-5.79-1.18-7.08-2.68a4.62,4.62,0,0,1-.35-.61c-.34-1.32.43-2.05,1.51-3.24C190.73,339.16,191.72,338.47,192.47,337.69ZM198,349.55a22.43,22.43,0,0,1,3.66-1c3.77-2.07,6.39-4.82,7.39-7.77.55-1.63.62-3.32,1.22-5a7.3,7.3,0,0,1,4.2-4.24,3.48,3.48,0,0,1,1.15-.3,4.61,4.61,0,0,1,1.58.29c3.06.95,6.38,2.1,7.39,4,.84,1.61-.21,3.35-1.84,4.73s-3.67,2.6-3.38,4.15c.18,1,1.37,1.83,2.74,2.44,3.05,1.34,7,1.72,10.44,2.71s6.59,3.09,5.52,5.21c-1.4,2.73-8.26,3.13-10.8,5.57-1,.94-1.22,2.11-2.31,3-1.79,1.49-5.52,1.84-8.47,1.23a17.36,17.36,0,0,1-7.11-3.42,48,48,0,0,0-5.78-4.27c-1.91-1.06-4.26-1.91-5.77-3.18S195.92,350.54,198,349.55ZM263,323.83c-1.49-.77-2.81-1.74-3.1-2.88s.4-2.21.23-3.32-1.29-2.22-2.39-3.22a16.34,16.34,0,0,0-5.56-3.62,31.76,31.76,0,0,0-8.54-1.29,34.17,34.17,0,0,1-8.55-1.25c-2.54-.89-4.4-2.68-3.53-4.31a11.67,11.67,0,0,1,2.28-2.27c2.27-2.16,2-5.13-.67-7.14a11.11,11.11,0,0,1-2.07-1.65,2.57,2.57,0,0,1,0-2.77,6.23,6.23,0,0,1,1.68-2.21c2.19-1.85,6.22-2.73,10.08-2.79,5.31-.08,11.06,1.54,12.66,4.47,1.38,2.51-.6,5.27,0,7.9.81,3.39,5.71,5.9,10.27,8.09l14.92,7.17c5.65,2.71,11.7,5.83,12.59,10a3.17,3.17,0,0,1-.71,2.93c-1.26,1.4-4,2.15-6.68,2.44-4.93.52-8.22-.42-12.94-1.41-1-.2-2.14-.41-2.67-.59-.27-.09-1.19-.26-1.19-.26A21.09,21.09,0,0,1,263,323.83Zm-12.36-56.41a25.73,25.73,0,0,1,11.17,1.1,43.58,43.58,0,0,1,11.81,5.75c2.35,1.59,4.52,3.36,5.29,5.41a2.07,2.07,0,0,1-.11,2,6.59,6.59,0,0,1-2.14,1.56,19.62,19.62,0,0,0-5.34,3.9c-1.28,1.49-1.81,3.26-.94,4.84s3.31,3,4.79,4.54,1.71,3.86-.9,4.81a12.93,12.93,0,0,1-2.66.5,21.82,21.82,0,0,1-8.75-1,5.73,5.73,0,0,1-2.76-2.38c-1-1.74-.94-3.88-.88-5.9.06-1.84.06-3.85-.94-5.47-.84-1.35-2.38-2.11-3.15-3.52a13.8,13.8,0,0,1-.89-3.14c-1.25-4.65-8.51-3.73-9.81-8.1C243.81,270.16,247,268,250.68,267.42Zm-48.76-2.51c0-2.46.57-5.1,2.6-6.72,1.06-.84,5.45-2.77,2.92-4.4-1.6-1-4.74-.62-6.57-1.53s-1.29-2.73.53-3.62a14.8,14.8,0,0,1,6.79-.95c6.48.26,12.74,2.08,16.95,4.94a19.69,19.69,0,0,0,5,3.06c3.35,1.14,7.84.7,11.1,1.93,3,1.14,4.12,3.41,4,5.49a3.67,3.67,0,0,1-2.45,3.42c-.87.35-1.95.51-2.76.9a3.31,3.31,0,0,0-1.55,1.55c-.88,1.95.22,4.14,2.77,5.5,1.35.71,3,1.2,4.49,1.84a12.57,12.57,0,0,1,3.4,2.13c1.13,1,1.76,2.53.23,3.37a8,8,0,0,1-2.61.69c-4.28.62-9.44,1.1-12.57-.7-2.3-1.32-2.54-3.4-4.08-5.05a13.18,13.18,0,0,0-3.6-2.5A53.24,53.24,0,0,0,208.81,269c-2.3-.28-5-.56-6.16-1.73A2.88,2.88,0,0,1,201.92,264.91Zm2.89,6.06a44.14,44.14,0,0,1,12.1,2.95c5.54,2,11.52,4.26,13.26,7.87a1.76,1.76,0,0,1,.2,1.42,4,4,0,0,1-1.19,1.28c-2.72,2.2-5.41,4.66-5.3,7.36.07,2,1.67,3.89,3.63,5.55.92.78,2,1.68,1.52,2.6-.34.66-1.4,1.1-1.94,1.71-1.27,1.42.26,3.52-1.89,4.51a5.22,5.22,0,0,1-5.61-1.38c-.86-1.27-.48-2.7-.67-4.06-.32-2.16-2.21-4.24-5.12-5.61-1.93-.9-4.57-1.9-4.13-3.31a4.9,4.9,0,0,1,.69-1c1.18-1.65.25-3.72-2.17-4.83a62.43,62.43,0,0,1-8-3.54,18.88,18.88,0,0,1-5.5-3.61c-1.31-1.42-1.83-3.16-.82-4.66C195.44,271.83,200.42,270.69,204.81,271Zm-59.9-10.78a13.84,13.84,0,0,1,5.3-3.67,25,25,0,0,1,10.15-2.26c5.28,0,9.9,2,13.68,4.14,2.89,1.63,5.89,3.49,9.89,3.79,2.74.2,5.55-.38,8.24,0,4.2.55,6.67,3.68,4.6,5.86a15.91,15.91,0,0,1-3.26,2.22c-2.28,1.42-4.08,3.14-4.55,5.05s.53,4,3,5.26c1.43.73,4.89,1.32,4,2.29-1.4,1.54-5.93-.19-8.77-.75a23.36,23.36,0,0,0-6.72-.49c-3,.27-6,.94-9,.34-2.15-.43-5-1.39-6-3.56-.81-1.76,0-3.69-1.17-5.37-1.49-2.23-5.74-3.33-9.61-4.18s-8.15-1.82-9.94-4A3.55,3.55,0,0,1,144.91,260.19ZM140.4,277c1.34-2.08,4.41-3.76,8.07-4.43,4-.72,9.21.09,10.61,2.38a6,6,0,0,1,.58,2c.61,3.23,3.54,6.63,8.87,7.68,3.51.69,7.33.24,11,0a74.91,74.91,0,0,1,20.28,1.7c3.3.75,6.92,2.17,6.74,4.21-.14,1.39-2.13,2.53-4.36,3a32.24,32.24,0,0,1-7.13.47c-1.44.52-4.29,1.58-4.94,2.75-.51.93,0,1.94.3,2.9a2.09,2.09,0,0,1-1.26,2.7,6.29,6.29,0,0,1-4.27-.19,15.9,15.9,0,0,1-3.12-1.9,22.86,22.86,0,0,0-10.19-3.52c-5.19-.55-10.6.48-15.76-.15a19.16,19.16,0,0,1-7.51-2.43c-.62-.38-1.2-.82-1.21-1.34,0-.92,1.69-1.51,2.36-2.34,1.14-1.41-.95-2.95-2.92-4a24.64,24.64,0,0,1-5.08-3.2C139.47,281.5,139.06,279.07,140.4,277Zm-34.2,28.76a10.35,10.35,0,0,1-4.23-2.89,3.18,3.18,0,0,1-.15-4.36c1.8-2.07,6.08-2.89,9.89-3.63s8-1.88,9.06-4.13-2-4.69-4-6.87-3.35-5.13-1.83-7.62,6.34-4.38,10.73-3.64a14.82,14.82,0,0,1,6.39,3,6.13,6.13,0,0,1,2.34,2.47,13.39,13.39,0,0,1,.18,2.19c.28,1.87,2.49,3.43,4.79,4.75s4.77,2.85,3.86,4.56a9.79,9.79,0,0,1-1.14,1.34c-1.14,1.38-.77,3.12.9,4.31,1.94,1.38,5.35,2,6.75,3.57s-.21,3.83-3.19,4.37-6.32-.45-9.12.27-3.87,2.69-6.62,3.26-5.46-.47-8.16-1a23.15,23.15,0,0,0-7.79-.1c-1.47.24-2.87.62-4.37.78A9.73,9.73,0,0,1,106.2,305.76Zm11.73,39.95a15.44,15.44,0,0,1-8.05-4.12,5,5,0,0,1-1.47-2.38c-.39-2,1.71-3.92,4-5.47s5-3,6.29-4.85a4.21,4.21,0,0,0-.5-5.41c-2.27-2.55-7.27-4.07-9.13-6.73s.24-5.9,4.52-7.22a22.05,22.05,0,0,1,9-.55,32.08,32.08,0,0,1,12.48,4.22c2.75,1.64,5.09,3.87,4.17,6.09-.84,2-4.32,3.6-4.25,5.7,0,1.75,2.61,3.13,5.12,4.11s5.37,1.94,6.58,3.55c1,1.35.7,2.91,1.36,4.34,1.95,4.21,11.29,5.68,15.24,9.39.52.49.88,1.2.12,1.56a3.2,3.2,0,0,1-1.35.21c-2.1,0-4.34.51-5.9-.79s-1.9-2.81-3.46-4c-2.53-2-6.65-3.19-10.86-3.27a20.45,20.45,0,0,0-11.24,2.84c-.82.54-1.52,1.15-2.42,1.66C125.56,346.05,121.39,346.39,117.93,345.71Zm60.21,22c-2.11,1.09-5,.4-7.85.62-1.19.1-2.39-.11-3.59-.13s-2.6.28-2.92.94a1,1,0,0,0,.24,1.06c.56.74,1.54,1.35,2.17,2.06s.87,1.67,0,2.29c-1.08.75-3.17.63-4.7.19a11.29,11.29,0,0,1-7.73-7.28c-1.12-2.88-1.92-6-5.32-8.18-2.95-1.91-7.36-2.78-11.22-4s-7.61-3.35-7.39-5.91c.12-1.3,1.26-2.49,2.67-3.51a18,18,0,0,1,8.42-3.18c3.38-.37,7.18.28,9.2,1.87,1.33,1.06,1.79,2.4,2.56,3.63a6.12,6.12,0,0,0,4.27,2.86c2.89.51,5.95-.75,8.92-.45a9.18,9.18,0,0,1,6.31,3.82q2.86,3.45,5.72,6.89a8.46,8.46,0,0,1,2,3.26A2.84,2.84,0,0,1,178.14,367.71Zm1.12-8.9a25.52,25.52,0,0,1-1.67-3.67c-2-4.55-6.57-8.71-12.8-11.72-3.2-1.53-6.87-2.79-9.4-4.7s-3.6-4.76-1-6.66,7.94-2,11.85-1,6.92,2.93,10.37,4.42a9.61,9.61,0,0,0,3.47.92c3.31.14,5.08-2.68,8.37-2.92.36,0,1.4,0,1.81.53.73,1-.51,3-1.57,4.14s-2.77,2.06-4,3.15-2,2.54-.93,3.69c1.66,1.8,6.68,1.89,8.1,3.75s-1.47,3.63-1.44,5.54c0,2.56,5.13,4.72,3.89,7.18-.69,1.35-3.25,2.19-5.67,2.13a12.58,12.58,0,0,1-6.28-1.9A9.63,9.63,0,0,1,179.26,358.81Zm67.07,15.47c-3.23,2.81-9.25,4.23-15.08,4.37-4.54.11-9.67-.35-13.14,1.34a23.87,23.87,0,0,1-2.26,1.14,13.41,13.41,0,0,1-5.55.35c-2.84-.27-6-.86-7.24-2.35-.94-1.11-.62-2.41-.59-3.65a3.13,3.13,0,0,0-2.31-3.26c-1.82-.59-4-.15-6.1,0a24.23,24.23,0,0,1-8.09-.56c-2.37-.59-4.66-1.76-4.58-3.26.08-1.3,2-2.37,4.22-2.72a21.05,21.05,0,0,1,6.67.28l.58-.12c2.39-1,4-2.54,4.36-4.2a8.16,8.16,0,0,1,.46-2.38,3.2,3.2,0,0,1,2.89-1.45,4.08,4.08,0,0,1,3.25,1.91,20,20,0,0,0,5.88,5.9,16.24,16.24,0,0,0,10.7,2,36.78,36.78,0,0,0,6.29-2.24,28.73,28.73,0,0,1,11.17-1.59,19.58,19.58,0,0,1,6.61,1.35C249.11,367.21,249.56,371.48,246.33,374.28Zm43.6-16.4c-.6,1.39-2.11,2.58-3.72,3.67a11.71,11.71,0,0,1-4,1.84,14.72,14.72,0,0,1-6.09-.13,18.6,18.6,0,0,1-5.1-1.8,14.6,14.6,0,0,0-4.24-1.93c-2.85-.58-6.29,1-6.05,2.71.21,1.51,2.6,2.71,2.72,4.22.11,1.32-1.52,2.46-3.07,3.44a7.63,7.63,0,0,1-4,1.47,5.4,5.4,0,0,1-3.75-1.38,13.22,13.22,0,0,1-1.7-2.51,12.54,12.54,0,0,0-5.15-4.14l-.46-.11c-2.25-1.48-6.27-1.17-9.65-1.38-.71,0-1.54-.17-1.76-.57a.61.61,0,0,1,.08-.58c1.31-2.2,7-2.91,7.65-5.21.2-.66-.09-1.37.33-2,.62-.93,2.56-1.32,4.3-1.36a40.4,40.4,0,0,0,5.17-.12c2.34-.38,4.12-1.71,4.14-3.11,0-2-3.1-3.88-2.11-5.81.61-1.18,2.65-1.94,4.72-2.25s4.24-.25,6.36-.38a31.17,31.17,0,0,1,4.1-.17,15.82,15.82,0,0,1,7,2.46,64.88,64.88,0,0,1,10.54,7.56C288.81,352.59,291.07,355.27,289.93,357.88ZM334.18,353c-1.94,1.32-5.08,1.83-8.06,2.09-3.42.29-6.85-.8-10.12-1.75-3-.87-6-1.85-9.05-2.52-1.14-.25-2.24-.37-2.91.83-.52.91-.13,2.07-1,2.86-1.1,1-3.86,1-5.53.26a9.24,9.24,0,0,1-3.45-3c-3.88-4.51-9.89-8.41-17.2-11.17a9.17,9.17,0,0,1-3.39-1.76,3,3,0,0,1-.48-2.71c.24-1.58.49-3.17.73-4.76a1.51,1.51,0,0,1,.54-1.1,4.87,4.87,0,0,1,2.83-.53c3.9.11,7.71,1.28,11.53.81,3.08-.36,5.47-1.72,8-2.81a42.86,42.86,0,0,1,8.78-2.66c4.09-.78,8.77-1,12.53.16s5.83,4.29,3.36,6.32c-.79.66-2,1.15-2.65,1.85-1.5,1.5-.31,3.44,1.5,4.83a44.31,44.31,0,0,0,7.84,4.22c2.76,1.32,5.47,2.77,7,4.64S336.5,351.45,334.18,353Z" style="fill:#fff"></path></g><path d="M233.26,205.88a4.07,4.07,0,0,0-4.13.3l-16,9.22a10.71,10.71,0,0,0-4.91,8.5v61.62h0a.53.53,0,0,0,.29.42,1.59,1.59,0,0,0,1.44,0,.52.52,0,0,0,.3-.42V223.9a8.74,8.74,0,0,1,3.89-6.74l16-9.22A1.71,1.71,0,0,1,233,209.6v9.22h0a.49.49,0,0,0,.3.41,1.59,1.59,0,0,0,1.44,0,.49.49,0,0,0,.3-.41h0V209.6A4,4,0,0,0,233.26,205.88Z" style="fill:#fff"></path><path d="M255.69,230.73v-9.21a3.68,3.68,0,0,0-5.93-3.42l-16,9.21a10.7,10.7,0,0,0-4.9,8.5v61.63h0a.52.52,0,0,0,.3.41,1.57,1.57,0,0,0,1.43,0,.52.52,0,0,0,.3-.42V235.81a8.74,8.74,0,0,1,3.89-6.74l16-9.21a1.7,1.7,0,0,1,2.87,1.66v9.21h0a.48.48,0,0,0,.29.41,1.59,1.59,0,0,0,1.44,0A.49.49,0,0,0,255.69,230.73Z" style="fill:#fff"></path><rect x="218.58" y="236.69" width="2.03" height="23.82" transform="translate(-105.49 314.47) rotate(-60)" style="fill:#fff"></rect><rect x="218.58" y="250.98" width="2.03" height="23.82" transform="translate(-117.87 321.61) rotate(-60)" style="fill:#fff"></rect><rect x="218.58" y="265.27" width="2.03" height="23.82" transform="translate(-130.25 328.76) rotate(-60)" style="fill:#fff"></rect></g></g><g id="freepik--Umbrella--inject-18"><g id="freepik--umbrella--inject-18"><path d="M369.46,153.79c5,1.78,14.09,9.47,19.26,15.39,8.48,3.14,22.7,9.24,31,14.41l5.56-12.91,8.24-19.09C411.58,146.77,393.73,144.92,369.46,153.79Z" style="fill:#3331E7"></path><path d="M369.46,153.79c5,1.78,14.09,9.47,19.26,15.39,8.48,3.14,22.7,9.24,31,14.41l5.56-12.91,8.24-19.09C411.58,146.77,393.73,144.92,369.46,153.79Z" style="opacity:0.15"></path><path d="M369.46,153.79c5,1.78,14.09,9.47,19.26,15.39,13.83-14.87,29.77-20,43.17-17.89A144.93,144.93,0,0,0,369.46,153.79Z" style="fill:#ebebeb"></path><path d="M425.32,170.68l-1.69,3.94c-7.51-4.47-18.32-9.13-30.18-10.08-6.52-5.43-20.2-10.23-24-10.75C369.46,153.79,394.31,151.14,425.32,170.68Z" style="opacity:0.15"></path><path d="M476,199.73c-4.72-2.41-16.56-3.75-24.42-3.44-8.1-4-22.34-10.18-31.82-12.7l5.56-12.91,8.24-19.09C452.14,164.26,465.79,176,476,199.73Z" style="fill:#3331E7"></path><path d="M476,199.73c-4.72-2.41-16.56-3.75-24.42-3.44-8.1-4-22.34-10.18-31.82-12.7l5.56-12.91,8.24-19.09C452.14,164.26,465.79,176,476,199.73Z" style="fill:#ebebeb"></path><path d="M476,199.73c-4.72-2.41-16.56-3.75-24.42-3.44C452.9,176,445.7,160.91,435,152.62A144.73,144.73,0,0,1,476,199.73Z" style="fill:#3331E7"></path><path d="M476,199.73c-4.72-2.41-16.56-3.75-24.42-3.44C452.9,176,445.7,160.91,435,152.62A144.73,144.73,0,0,1,476,199.73Z" style="opacity:0.15"></path><path d="M425.32,170.68l-1.69,3.94c8.4,2.39,19.25,7.07,28.08,15,8.43,1,21.31,7.67,24.29,10.07C476,199.73,460.82,179.82,425.32,170.68Z" style="opacity:0.15"></path><path d="M430.82,154.59l-43.59,102.3a.6.6,0,0,0,.14.6,1.92,1.92,0,0,0,1.61.69.59.59,0,0,0,.53-.32l43.59-102.3Z" style="fill:#263238"></path><path d="M431.92,155.38l.22.05.26.06.23,0c.34,0,.27-.15.36-.3l.58-1.38c.46-1.15,1.06-2.68,1.61-4.24.28-.78.54-1.56.78-2.3.11-.37.24-.73.33-1.07l.29-1c.08-.3.15-.58.22-.82s.12-.46.16-.64c.09-.36.13-.56.13-.56s-.12.17-.31.48c-.1.15-.22.34-.35.56s-.28.46-.43.73-.33.56-.5.87-.36.64-.54,1c-.37.68-.76,1.42-1.13,2.15-.74,1.48-1.43,3-1.94,4.11l-.59,1.36c-.05.18-.23.26,0,.48l.17.14.22.15Z" style="fill:#263238"></path><path d="M369.46,153.79a69.4,69.4,0,0,1,24.77,7.69c11.26.86,24.39,7.8,29.92,11.92l9.41-21.81C417.07,146.23,393.73,144.92,369.46,153.79Z" style="fill:#3331E7"></path><path d="M394.23,161.48c11.26.86,24.39,7.8,29.92,11.92l9.41-21.81c-7.94-1.6-17.81,1-25.63,3.8A105.13,105.13,0,0,0,394.23,161.48Z" style="fill:#f0f0f0"></path><path d="M476,199.71A69.59,69.59,0,0,0,453.36,187c-8.35-7.59-22.42-12.38-29.21-13.57l9.41-21.81C448.77,159.9,465.75,176,476,199.71Z" style="fill:#f0f0f0"></path><path d="M453.36,187c-8.35-7.59-22.42-12.38-29.21-13.57l9.41-21.81c6.61,4.67,11.51,13.62,14.83,21.25A105.51,105.51,0,0,1,453.36,187Z" style="fill:#3331E7"></path><path d="M433.56,151.59c.46.33.95.67,1.4,1Z" style="fill:#ebebeb"></path></g></g><g id="freepik--Chairs--inject-18"><polygon id="freepik--Shadow--inject-18" points="324.82 271.22 287.68 249.78 361.95 206.9 399.09 228.34 324.82 271.22" style="opacity:0.1"></polygon><polygon id="freepik--shadow--inject-18" points="382.59 304.58 345.46 283.14 419.73 240.26 456.87 261.7 382.59 304.58" style="opacity:0.1"></polygon><g id="freepik--Chair--inject-18"><polygon points="445.07 260.43 429.06 269.67 430.48 270.49 446.49 261.24 445.07 260.43" style="fill:#ebebeb"></polygon><polygon points="430.48 272.12 429.06 271.31 426.23 261.48 427.64 262.3 430.48 272.12" style="fill:#e0e0e0"></polygon><polygon points="446.49 261.25 445.07 260.43 447.5 249.19 448.92 250.01 446.49 261.25" style="fill:#e0e0e0"></polygon><polygon points="450.34 249.19 447.5 262.3 430.48 272.12 427.64 262.3 429.06 261.48 431.5 269.9 446.49 261.24 448.92 250.01 450.34 249.19" style="fill:#f0f0f0"></polygon><polygon points="405.36 283.36 389.35 292.6 390.77 293.41 406.78 284.17 405.36 283.36" style="fill:#ebebeb"></polygon><polygon points="390.77 295.05 389.35 294.23 386.51 284.41 387.93 285.23 390.77 295.05" style="fill:#e0e0e0"></polygon><polygon points="406.78 284.17 405.36 283.36 407.79 272.12 409.21 272.94 406.78 284.17" style="fill:#e0e0e0"></polygon><polygon points="410.63 272.12 407.79 285.23 390.77 295.05 387.93 285.23 389.35 284.41 391.78 292.83 406.78 284.17 409.21 272.94 410.63 272.12" style="fill:#f0f0f0"></polygon><path d="M351.06,272.12l28.36,16.38,78-45-28.37-16.37Zm34.74,11.06-25.53-14.74,68.79-39.72,25.53,14.74Z" style="fill:#fafafa"></path><polygon points="457.43 243.46 457.43 245.1 379.42 290.14 379.42 288.5 457.43 243.46" style="fill:#e0e0e0"></polygon><polygon points="351.06 272.12 351.06 273.76 379.42 290.14 379.42 288.5 351.06 272.12" style="fill:#f0f0f0"></polygon><polygon points="454.59 243.46 429.06 228.72 429.06 230.36 453.18 244.28 454.59 243.46" style="fill:#e0e0e0"></polygon><polygon points="360.27 268.44 429.06 228.72 429.06 230.36 361.69 269.26 360.27 268.44" style="fill:#f0f0f0"></polygon><path d="M423.72,260.85l-24.78-14.3a.84.84,0,0,1-.37-.65v-.77a.82.82,0,0,1,.37-.65l4.92-2.84a.85.85,0,0,1,.76,0l24.77,14.3a.83.83,0,0,1,.38.65v.77a.83.83,0,0,1-.38.65l-4.92,2.84A.83.83,0,0,1,423.72,260.85Z" style="fill:#ebebeb"></path><path d="M423.72,260.85l-24.78-14.3a.84.84,0,0,1-.37-.65v-.77a.82.82,0,0,1,.37-.65l4.92-2.84a.85.85,0,0,1,.76,0l24.77,14.3a.83.83,0,0,1,.38.65v.77a.83.83,0,0,1-.38.65l-4.92,2.84A.83.83,0,0,1,423.72,260.85Z" style="fill:#3331E7"></path><path d="M423.72,260.85l-24.78-14.3a.84.84,0,0,1-.37-.65v-.77a.82.82,0,0,1,.37-.65l4.92-2.84a.85.85,0,0,1,.76,0l24.77,14.3a.83.83,0,0,1,.38.65v.77a.83.83,0,0,1-.38.65l-4.92,2.84A.83.83,0,0,1,423.72,260.85Z" style="fill:#fff;opacity:0.5"></path><path d="M429.39,256.38l-4.92,2.84a.83.83,0,0,1-.75,0l-24.78-14.31c-.21-.12-.21-.31,0-.43l4.92-2.84a.85.85,0,0,1,.76,0l24.77,14.3A.23.23,0,0,1,429.39,256.38Z" style="fill:#3331E7"></path><path d="M429.39,256.38l-4.92,2.84a.83.83,0,0,1-.75,0l-24.78-14.31c-.21-.12-.21-.31,0-.43l4.92-2.84a.85.85,0,0,1,.76,0l24.77,14.3A.23.23,0,0,1,429.39,256.38Z" style="fill:#fff;opacity:0.7000000000000001"></path><path d="M424.09,259.31v1.63a.83.83,0,0,0,.39-.09l4.91-2.84a.83.83,0,0,0,.38-.65v-.77a.83.83,0,0,0-.31-.6c.14.12.11.28-.07.39l-4.91,2.83A.73.73,0,0,1,424.09,259.31Z" style="opacity:0.1"></path><path d="M417.33,264.54l-24.77-14.31a.83.83,0,0,1-.38-.65v-.77a.83.83,0,0,1,.38-.65l4.92-2.84a.85.85,0,0,1,.76,0L423,259.62a.84.84,0,0,1,.38.66V261a.84.84,0,0,1-.38.66l-4.92,2.84A.85.85,0,0,1,417.33,264.54Z" style="fill:#ebebeb"></path><path d="M417.33,264.54l-24.77-14.31a.83.83,0,0,1-.38-.65v-.77a.83.83,0,0,1,.38-.65l4.92-2.84a.85.85,0,0,1,.76,0L423,259.62a.84.84,0,0,1,.38.66V261a.84.84,0,0,1-.38.66l-4.92,2.84A.85.85,0,0,1,417.33,264.54Z" style="fill:#3331E7"></path><path d="M417.33,264.54l-24.77-14.31a.83.83,0,0,1-.38-.65v-.77a.83.83,0,0,1,.38-.65l4.92-2.84a.85.85,0,0,1,.76,0L423,259.62a.84.84,0,0,1,.38.66V261a.84.84,0,0,1-.38.66l-4.92,2.84A.85.85,0,0,1,417.33,264.54Z" style="fill:#fff;opacity:0.5"></path><path d="M423,260.06l-4.92,2.84a.83.83,0,0,1-.75,0l-24.78-14.3a.23.23,0,0,1,0-.44l4.92-2.84a.85.85,0,0,1,.76,0L423,259.62A.23.23,0,0,1,423,260.06Z" style="fill:#3331E7"></path><path d="M423,260.06l-4.92,2.84a.83.83,0,0,1-.75,0l-24.78-14.3a.23.23,0,0,1,0-.44l4.92-2.84a.85.85,0,0,1,.76,0L423,259.62A.23.23,0,0,1,423,260.06Z" style="fill:#fff;opacity:0.7000000000000001"></path><path d="M417.71,263v1.64a.76.76,0,0,0,.38-.09L423,261.7a.83.83,0,0,0,.38-.66v-.76a.87.87,0,0,0-.31-.61c.13.12.11.28-.07.39l-4.92,2.84A.76.76,0,0,1,417.71,263Z" style="opacity:0.1"></path><path d="M411,268.22l-24.77-14.3a.83.83,0,0,1-.38-.66v-.76a.83.83,0,0,1,.38-.65L391.1,249a.83.83,0,0,1,.75,0l24.78,14.3a.82.82,0,0,1,.37.65v.77a.82.82,0,0,1-.37.65l-4.92,2.84A.85.85,0,0,1,411,268.22Z" style="fill:#ebebeb"></path><path d="M411,268.22l-24.77-14.3a.83.83,0,0,1-.38-.66v-.76a.83.83,0,0,1,.38-.65L391.1,249a.83.83,0,0,1,.75,0l24.78,14.3a.82.82,0,0,1,.37.65v.77a.82.82,0,0,1-.37.65l-4.92,2.84A.85.85,0,0,1,411,268.22Z" style="fill:#3331E7"></path><path d="M411,268.22l-24.77-14.3a.83.83,0,0,1-.38-.66v-.76a.83.83,0,0,1,.38-.65L391.1,249a.83.83,0,0,1,.75,0l24.78,14.3a.82.82,0,0,1,.37.65v.77a.82.82,0,0,1-.37.65l-4.92,2.84A.85.85,0,0,1,411,268.22Z" style="fill:#fff;opacity:0.5"></path><path d="M416.63,263.75l-4.92,2.83a.79.79,0,0,1-.76,0l-24.77-14.3c-.21-.12-.21-.31,0-.43L391.1,249a.83.83,0,0,1,.75,0l24.78,14.3A.23.23,0,0,1,416.63,263.75Z" style="fill:#3331E7"></path><path d="M416.63,263.75l-4.92,2.83a.79.79,0,0,1-.76,0l-24.77-14.3c-.21-.12-.21-.31,0-.43L391.1,249a.83.83,0,0,1,.75,0l24.78,14.3A.23.23,0,0,1,416.63,263.75Z" style="fill:#fff;opacity:0.7000000000000001"></path><path d="M411.33,266.68v1.63a.76.76,0,0,0,.38-.09l4.92-2.84a.82.82,0,0,0,.37-.65V264a.85.85,0,0,0-.3-.6c.13.12.11.28-.07.39l-4.92,2.83A.67.67,0,0,1,411.33,266.68Z" style="opacity:0.1"></path><path d="M404.57,271.91,379.8,257.6a.83.83,0,0,1-.38-.65v-.77a.83.83,0,0,1,.38-.65l4.92-2.84a.83.83,0,0,1,.75,0L410.24,267a.84.84,0,0,1,.38.66v.76a.84.84,0,0,1-.38.66l-4.91,2.84A.85.85,0,0,1,404.57,271.91Z" style="fill:#ebebeb"></path><path d="M404.57,271.91,379.8,257.6a.83.83,0,0,1-.38-.65v-.77a.83.83,0,0,1,.38-.65l4.92-2.84a.83.83,0,0,1,.75,0L410.24,267a.84.84,0,0,1,.38.66v.76a.84.84,0,0,1-.38.66l-4.91,2.84A.85.85,0,0,1,404.57,271.91Z" style="fill:#3331E7"></path><path d="M404.57,271.91,379.8,257.6a.83.83,0,0,1-.38-.65v-.77a.83.83,0,0,1,.38-.65l4.92-2.84a.83.83,0,0,1,.75,0L410.24,267a.84.84,0,0,1,.38.66v.76a.84.84,0,0,1-.38.66l-4.91,2.84A.85.85,0,0,1,404.57,271.91Z" style="fill:#fff;opacity:0.5"></path><path d="M410.24,267.43l-4.91,2.84a.85.85,0,0,1-.76,0L379.8,256a.23.23,0,0,1,0-.44l4.92-2.84a.83.83,0,0,1,.75,0L410.24,267A.23.23,0,0,1,410.24,267.43Z" style="fill:#3331E7"></path><path d="M410.24,267.43l-4.91,2.84a.85.85,0,0,1-.76,0L379.8,256a.23.23,0,0,1,0-.44l4.92-2.84a.83.83,0,0,1,.75,0L410.24,267A.23.23,0,0,1,410.24,267.43Z" style="fill:#fff;opacity:0.7000000000000001"></path><path d="M405,270.36V272a.82.82,0,0,0,.38-.09l4.91-2.84a.83.83,0,0,0,.38-.66v-.76a.83.83,0,0,0-.31-.61c.14.12.12.28-.07.39l-4.91,2.84A.82.82,0,0,1,405,270.36Z" style="opacity:0.1"></path><path d="M398.19,275.59l-24.77-14.3a.83.83,0,0,1-.38-.66v-.76a.84.84,0,0,1,.38-.66l4.91-2.83a.79.79,0,0,1,.76,0l24.77,14.3a.83.83,0,0,1,.38.65v.77a.83.83,0,0,1-.38.65L399,275.59A.85.85,0,0,1,398.19,275.59Z" style="fill:#ebebeb"></path><path d="M398.19,275.59l-24.77-14.3a.83.83,0,0,1-.38-.66v-.76a.84.84,0,0,1,.38-.66l4.91-2.83a.79.79,0,0,1,.76,0l24.77,14.3a.83.83,0,0,1,.38.65v.77a.83.83,0,0,1-.38.65L399,275.59A.85.85,0,0,1,398.19,275.59Z" style="fill:#3331E7"></path><path d="M398.19,275.59l-24.77-14.3a.83.83,0,0,1-.38-.66v-.76a.84.84,0,0,1,.38-.66l4.91-2.83a.79.79,0,0,1,.76,0l24.77,14.3a.83.83,0,0,1,.38.65v.77a.83.83,0,0,1-.38.65L399,275.59A.85.85,0,0,1,398.19,275.59Z" style="fill:#fff;opacity:0.5"></path><path d="M403.86,271.11,399,274a.85.85,0,0,1-.76,0l-24.77-14.3a.23.23,0,0,1,0-.44l4.91-2.83a.79.79,0,0,1,.76,0l24.77,14.3C404.07,270.8,404.07,271,403.86,271.11Z" style="fill:#3331E7"></path><path d="M403.86,271.11,399,274a.85.85,0,0,1-.76,0l-24.77-14.3a.23.23,0,0,1,0-.44l4.91-2.83a.79.79,0,0,1,.76,0l24.77,14.3C404.07,270.8,404.07,271,403.86,271.11Z" style="fill:#fff;opacity:0.7000000000000001"></path><path d="M398.57,274v1.64a.82.82,0,0,0,.38-.09l4.91-2.84a.83.83,0,0,0,.38-.65v-.77a.83.83,0,0,0-.31-.6c.14.12.11.28-.07.38L399,274A.71.71,0,0,1,398.57,274Z" style="opacity:0.1"></path><path d="M391.81,279.28,367,265a.82.82,0,0,1-.37-.65v-.77a.82.82,0,0,1,.37-.65l4.92-2.84a.85.85,0,0,1,.76,0l24.77,14.3a.84.84,0,0,1,.38.66v.76a.84.84,0,0,1-.38.66l-4.92,2.84A.83.83,0,0,1,391.81,279.28Z" style="fill:#ebebeb"></path><path d="M391.81,279.28,367,265a.82.82,0,0,1-.37-.65v-.77a.82.82,0,0,1,.37-.65l4.92-2.84a.85.85,0,0,1,.76,0l24.77,14.3a.84.84,0,0,1,.38.66v.76a.84.84,0,0,1-.38.66l-4.92,2.84A.83.83,0,0,1,391.81,279.28Z" style="fill:#3331E7"></path><path d="M391.81,279.28,367,265a.82.82,0,0,1-.37-.65v-.77a.82.82,0,0,1,.37-.65l4.92-2.84a.85.85,0,0,1,.76,0l24.77,14.3a.84.84,0,0,1,.38.66v.76a.84.84,0,0,1-.38.66l-4.92,2.84A.83.83,0,0,1,391.81,279.28Z" style="fill:#fff;opacity:0.5"></path><path d="M397.48,274.8l-4.92,2.84a.83.83,0,0,1-.75,0L367,263.34c-.21-.13-.21-.32,0-.44l4.92-2.84a.85.85,0,0,1,.76,0l24.77,14.3A.23.23,0,0,1,397.48,274.8Z" style="fill:#3331E7"></path><path d="M397.48,274.8l-4.92,2.84a.83.83,0,0,1-.75,0L367,263.34c-.21-.13-.21-.32,0-.44l4.92-2.84a.85.85,0,0,1,.76,0l24.77,14.3A.23.23,0,0,1,397.48,274.8Z" style="fill:#fff;opacity:0.7000000000000001"></path><path d="M392.18,277.73v1.64a.76.76,0,0,0,.38-.09l4.92-2.84a.84.84,0,0,0,.38-.66V275a.83.83,0,0,0-.31-.61c.14.12.11.28-.07.39l-4.92,2.84A.76.76,0,0,1,392.18,277.73Z" style="opacity:0.1"></path><path d="M385.42,283l-24.77-14.3a.84.84,0,0,1-.38-.66v-.76a.84.84,0,0,1,.38-.66l4.92-2.84a.83.83,0,0,1,.75,0l24.78,14.31a.83.83,0,0,1,.38.65v.77a.83.83,0,0,1-.38.65L386.18,283A.85.85,0,0,1,385.42,283Z" style="fill:#ebebeb"></path><path d="M385.42,283l-24.77-14.3a.84.84,0,0,1-.38-.66v-.76a.84.84,0,0,1,.38-.66l4.92-2.84a.83.83,0,0,1,.75,0l24.78,14.31a.83.83,0,0,1,.38.65v.77a.83.83,0,0,1-.38.65L386.18,283A.85.85,0,0,1,385.42,283Z" style="fill:#3331E7"></path><path d="M385.42,283l-24.77-14.3a.84.84,0,0,1-.38-.66v-.76a.84.84,0,0,1,.38-.66l4.92-2.84a.83.83,0,0,1,.75,0l24.78,14.31a.83.83,0,0,1,.38.65v.77a.83.83,0,0,1-.38.65L386.18,283A.85.85,0,0,1,385.42,283Z" style="fill:#fff;opacity:0.5"></path><path d="M391.1,278.48l-4.92,2.84a.85.85,0,0,1-.76,0L360.65,267a.23.23,0,0,1,0-.44l4.92-2.84a.83.83,0,0,1,.75,0l24.78,14.31C391.31,278.17,391.31,278.36,391.1,278.48Z" style="fill:#3331E7"></path><path d="M391.1,278.48l-4.92,2.84a.85.85,0,0,1-.76,0L360.65,267a.23.23,0,0,1,0-.44l4.92-2.84a.83.83,0,0,1,.75,0l24.78,14.31C391.31,278.17,391.31,278.36,391.1,278.48Z" style="fill:#fff;opacity:0.7000000000000001"></path><path d="M385.8,281.41v1.64a.76.76,0,0,0,.38-.09l4.92-2.84a.83.83,0,0,0,.38-.65v-.77a.86.86,0,0,0-.31-.6c.13.12.11.28-.07.38l-4.92,2.84A.67.67,0,0,1,385.8,281.41Z" style="opacity:0.1"></path><path d="M379,286.65l-24.77-14.31a.83.83,0,0,1-.38-.65v-.77a.83.83,0,0,1,.38-.65l4.92-2.84a.83.83,0,0,1,.75,0l24.78,14.3a.86.86,0,0,1,.37.66v.76a.86.86,0,0,1-.37.66l-4.92,2.84A.85.85,0,0,1,379,286.65Z" style="fill:#ebebeb"></path><path d="M379,286.65l-24.77-14.31a.83.83,0,0,1-.38-.65v-.77a.83.83,0,0,1,.38-.65l4.92-2.84a.83.83,0,0,1,.75,0l24.78,14.3a.86.86,0,0,1,.37.66v.76a.86.86,0,0,1-.37.66l-4.92,2.84A.85.85,0,0,1,379,286.65Z" style="fill:#3331E7"></path><path d="M379,286.65l-24.77-14.31a.83.83,0,0,1-.38-.65v-.77a.83.83,0,0,1,.38-.65l4.92-2.84a.83.83,0,0,1,.75,0l24.78,14.3a.86.86,0,0,1,.37.66v.76a.86.86,0,0,1-.37.66l-4.92,2.84A.85.85,0,0,1,379,286.65Z" style="fill:#fff;opacity:0.5"></path><path d="M384.72,282.17,379.8,285a.85.85,0,0,1-.76,0L354.27,270.7c-.21-.12-.21-.31,0-.43l4.92-2.84a.83.83,0,0,1,.75,0l24.78,14.3A.24.24,0,0,1,384.72,282.17Z" style="fill:#3331E7"></path><path d="M384.72,282.17,379.8,285a.85.85,0,0,1-.76,0L354.27,270.7c-.21-.12-.21-.31,0-.43l4.92-2.84a.83.83,0,0,1,.75,0l24.78,14.3A.24.24,0,0,1,384.72,282.17Z" style="fill:#fff;opacity:0.7000000000000001"></path><path d="M379.42,285.1v1.64a.92.92,0,0,0,.38-.09l4.92-2.84a.85.85,0,0,0,.37-.66v-.76a.86.86,0,0,0-.3-.61c.13.12.11.28-.07.39L379.8,285A.79.79,0,0,1,379.42,285.1Z" style="opacity:0.1"></path><rect x="411.05" y="222.1" width="29.48" height="29.48" rx="0.7" transform="translate(7.79 487.18) rotate(-60)" style="fill:#3331E7"></rect><rect x="411.05" y="222.1" width="29.48" height="29.48" rx="0.7" transform="translate(7.79 487.18) rotate(-60)" style="fill:#fff;opacity:0.5"></rect><path d="M433.8,251.05a.7.7,0,0,1,.26.95l-2.14,3.71a.69.69,0,0,1-.95.25L405.23,241.1a.69.69,0,0,1-.25-.95l2.13-3.71a.71.71,0,0,1,1-.25L433,250.58Z" style="fill:#3331E7"></path><path d="M433.8,251.05a.7.7,0,0,1,.26.95l-2.14,3.71a.69.69,0,0,1-.95.25L405.23,241.1a.69.69,0,0,1-.25-.95l2.13-3.71a.71.71,0,0,1,1-.25L433,250.58Z" style="fill:#fff;opacity:0.5"></path><path d="M433.8,251.05a.7.7,0,0,1,.26.95l-2.14,3.71a.69.69,0,0,1-.95.25L405.23,241.1a.69.69,0,0,1-.25-.95l2.13-3.71a.71.71,0,0,1,1-.25L433,250.58Z" style="opacity:0.1"></path><rect x="415.97" y="230.93" width="5.67" height="29.48" rx="0.7" transform="translate(-3.36 485.51) rotate(-60)" style="fill:#3331E7"></rect><rect x="415.97" y="230.93" width="5.67" height="29.48" rx="0.7" transform="translate(-3.36 485.51) rotate(-60)" style="fill:#fff;opacity:0.7000000000000001"></rect><path d="M437,245.57a.7.7,0,0,1,.26,1l-2.13,3.7a.7.7,0,0,1-1,.25l-25.74-14.86a.7.7,0,0,1-.25-1l2.14-3.7a.69.69,0,0,1,1-.26l24.92,14.39Z" style="fill:#3331E7"></path><path d="M437,245.57a.7.7,0,0,1,.26,1l-2.13,3.7a.7.7,0,0,1-1,.25l-25.74-14.86a.7.7,0,0,1-.25-1l2.14-3.7a.69.69,0,0,1,1-.26l24.92,14.39Z" style="fill:#fff;opacity:0.5"></path><path d="M437,245.57a.7.7,0,0,1,.26,1l-2.13,3.7a.7.7,0,0,1-1,.25l-25.74-14.86a.7.7,0,0,1-.25-1l2.14-3.7a.69.69,0,0,1,1-.26l24.92,14.39Z" style="opacity:0.1"></path><rect x="419.14" y="225.45" width="5.67" height="29.48" rx="0.7" transform="translate(2.97 485.52) rotate(-60)" style="fill:#3331E7"></rect><rect x="419.14" y="225.45" width="5.67" height="29.48" rx="0.7" transform="translate(2.97 485.52) rotate(-60)" style="fill:#fff;opacity:0.7000000000000001"></rect><path d="M440.13,240.09a.71.71,0,0,1,.25,1l-2.13,3.7a.7.7,0,0,1-.95.26l-25.74-14.86a.7.7,0,0,1-.26-1l2.14-3.7a.69.69,0,0,1,.95-.26l24.92,14.39Z" style="fill:#3331E7"></path><path d="M440.13,240.09a.71.71,0,0,1,.25,1l-2.13,3.7a.7.7,0,0,1-.95.26l-25.74-14.86a.7.7,0,0,1-.26-1l2.14-3.7a.69.69,0,0,1,.95-.26l24.92,14.39Z" style="fill:#fff;opacity:0.5"></path><path d="M440.13,240.09a.71.71,0,0,1,.25,1l-2.13,3.7a.7.7,0,0,1-.95.26l-25.74-14.86a.7.7,0,0,1-.26-1l2.14-3.7a.69.69,0,0,1,.95-.26l24.92,14.39Z" style="opacity:0.1"></path><rect x="422.3" y="219.97" width="5.67" height="29.48" rx="0.7" transform="translate(9.29 485.51) rotate(-60)" style="fill:#3331E7"></rect><rect x="422.3" y="219.97" width="5.67" height="29.48" rx="0.7" transform="translate(9.29 485.51) rotate(-60)" style="fill:#fff;opacity:0.7000000000000001"></rect><path d="M440.13,240.09a.71.71,0,0,1,.25,1l-2.13,3.7a.7.7,0,0,1-.95.26l-25.74-14.86a.7.7,0,0,1-.26-1l2.14-3.7a.69.69,0,0,1,.95-.26l24.92,14.39Z" style="fill:#3331E7"></path><path d="M440.13,240.09a.71.71,0,0,1,.25,1l-2.13,3.7a.7.7,0,0,1-.95.26l-25.74-14.86a.7.7,0,0,1-.26-1l2.14-3.7a.69.69,0,0,1,.95-.26l24.92,14.39Z" style="fill:#fff;opacity:0.5"></path><path d="M440.13,240.09a.71.71,0,0,1,.25,1l-2.13,3.7a.7.7,0,0,1-.95.26l-25.74-14.86a.7.7,0,0,1-.26-1l2.14-3.7a.69.69,0,0,1,.95-.26l24.92,14.39Z" style="opacity:0.1"></path><rect x="422.3" y="219.97" width="5.67" height="29.48" rx="0.7" transform="translate(9.29 485.51) rotate(-60)" style="fill:#3331E7"></rect><rect x="422.3" y="219.97" width="5.67" height="29.48" rx="0.7" transform="translate(9.29 485.51) rotate(-60)" style="fill:#fff;opacity:0.7000000000000001"></rect><path d="M443.29,234.61a.71.71,0,0,1,.26,1l-2.14,3.7a.69.69,0,0,1-1,.26l-25.74-14.86a.71.71,0,0,1-.26-1l2.14-3.7a.71.71,0,0,1,1-.26l24.92,14.39Z" style="fill:#3331E7"></path><path d="M443.29,234.61a.71.71,0,0,1,.26,1l-2.14,3.7a.69.69,0,0,1-1,.26l-25.74-14.86a.71.71,0,0,1-.26-1l2.14-3.7a.71.71,0,0,1,1-.26l24.92,14.39Z" style="fill:#fff;opacity:0.5"></path><path d="M443.29,234.61a.71.71,0,0,1,.26,1l-2.14,3.7a.69.69,0,0,1-1,.26l-25.74-14.86a.71.71,0,0,1-.26-1l2.14-3.7a.71.71,0,0,1,1-.26l24.92,14.39Z" style="opacity:0.1"></path><rect x="425.46" y="214.49" width="5.67" height="29.48" rx="0.7" transform="translate(15.62 485.52) rotate(-60)" style="fill:#3331E7"></rect><rect x="425.46" y="214.49" width="5.67" height="29.48" rx="0.7" transform="translate(15.62 485.52) rotate(-60)" style="fill:#fff;opacity:0.7000000000000001"></rect><path d="M443.29,234.61a.71.71,0,0,1,.26,1l-2.14,3.7a.69.69,0,0,1-1,.26l-25.74-14.86a.71.71,0,0,1-.26-1l2.14-3.7a.71.71,0,0,1,1-.26l24.92,14.39Z" style="fill:#3331E7"></path><path d="M443.29,234.61a.71.71,0,0,1,.26,1l-2.14,3.7a.69.69,0,0,1-1,.26l-25.74-14.86a.71.71,0,0,1-.26-1l2.14-3.7a.71.71,0,0,1,1-.26l24.92,14.39Z" style="fill:#fff;opacity:0.5"></path><path d="M443.29,234.61a.71.71,0,0,1,.26,1l-2.14,3.7a.69.69,0,0,1-1,.26l-25.74-14.86a.71.71,0,0,1-.26-1l2.14-3.7a.71.71,0,0,1,1-.26l24.92,14.39Z" style="opacity:0.1"></path><rect x="425.46" y="214.49" width="5.67" height="29.48" rx="0.7" transform="translate(15.62 485.52) rotate(-60)" style="fill:#3331E7"></rect><rect x="425.46" y="214.49" width="5.67" height="29.48" rx="0.7" transform="translate(15.62 485.52) rotate(-60)" style="fill:#fff;opacity:0.7000000000000001"></rect><path d="M446.45,229.14a.69.69,0,0,1,.26,1l-2.13,3.7a.7.7,0,0,1-1,.26l-25.74-14.86a.7.7,0,0,1-.25-1l2.14-3.7a.69.69,0,0,1,1-.25l24.92,14.39Z" style="fill:#3331E7"></path><path d="M446.45,229.14a.69.69,0,0,1,.26,1l-2.13,3.7a.7.7,0,0,1-1,.26l-25.74-14.86a.7.7,0,0,1-.25-1l2.14-3.7a.69.69,0,0,1,1-.25l24.92,14.39Z" style="fill:#fff;opacity:0.5"></path><path d="M446.45,229.14a.69.69,0,0,1,.26,1l-2.13,3.7a.7.7,0,0,1-1,.26l-25.74-14.86a.7.7,0,0,1-.25-1l2.14-3.7a.69.69,0,0,1,1-.25l24.92,14.39Z" style="opacity:0.1"></path><rect x="428.62" y="209.01" width="5.67" height="29.48" rx="0.7" transform="matrix(0.5, -0.87, 0.87, 0.5, 21.95, 485.52)" style="fill:#3331E7"></rect><rect x="428.62" y="209.01" width="5.67" height="29.48" rx="0.7" transform="matrix(0.5, -0.87, 0.87, 0.5, 21.95, 485.52)" style="fill:#fff;opacity:0.7000000000000001"></rect></g><g id="freepik--chair--inject-18"><polygon points="387.37 227.07 371.37 236.31 372.78 237.13 388.79 227.89 387.37 227.07" style="fill:#ebebeb"></polygon><polygon points="372.78 238.77 371.37 237.95 368.53 228.12 369.95 228.94 372.78 238.77" style="fill:#e0e0e0"></polygon><polygon points="388.79 227.89 387.37 227.07 389.8 215.84 391.22 216.66 388.79 227.89" style="fill:#e0e0e0"></polygon><polygon points="392.64 215.84 389.8 228.94 372.78 238.77 369.95 228.94 371.37 228.12 373.8 236.54 388.79 227.89 391.22 216.66 392.64 215.84" style="fill:#f0f0f0"></polygon><polygon points="347.66 250 331.65 259.24 333.07 260.06 349.08 250.82 347.66 250" style="fill:#ebebeb"></polygon><polygon points="333.07 261.7 331.65 260.88 328.82 251.05 330.23 251.87 333.07 261.7" style="fill:#e0e0e0"></polygon><polygon points="349.08 250.82 347.66 250 350.09 238.77 351.51 239.59 349.08 250.82" style="fill:#e0e0e0"></polygon><polygon points="352.93 238.77 350.09 251.87 333.07 261.7 330.23 251.87 331.65 251.05 334.08 259.47 349.08 250.82 351.51 239.59 352.93 238.77" style="fill:#f0f0f0"></polygon><path d="M293.36,238.77l28.36,16.38,78-45-28.36-16.38Zm34.74,11-25.52-14.74,68.79-39.71,25.53,14.74Z" style="fill:#fafafa"></path><polygon points="399.73 210.11 399.73 211.75 321.73 256.78 321.73 255.15 399.73 210.11" style="fill:#e0e0e0"></polygon><polygon points="293.36 238.77 293.36 240.41 321.73 256.78 321.73 255.15 293.36 238.77" style="fill:#f0f0f0"></polygon><polygon points="396.9 210.11 371.37 195.37 371.37 197.01 395.48 210.93 396.9 210.11" style="fill:#e0e0e0"></polygon><polygon points="302.57 235.09 371.37 195.37 371.37 197.01 303.99 235.9 302.57 235.09" style="fill:#f0f0f0"></polygon><path d="M366,227.5l-24.77-14.31a.83.83,0,0,1-.38-.65v-.76a.83.83,0,0,1,.38-.66l4.91-2.84a.85.85,0,0,1,.76,0l24.77,14.3a.86.86,0,0,1,.38.66V224a.84.84,0,0,1-.38.66l-4.91,2.84A.85.85,0,0,1,366,227.5Z" style="fill:#ebebeb"></path><path d="M366,227.5l-24.77-14.31a.83.83,0,0,1-.38-.65v-.76a.83.83,0,0,1,.38-.66l4.91-2.84a.85.85,0,0,1,.76,0l24.77,14.3a.86.86,0,0,1,.38.66V224a.84.84,0,0,1-.38.66l-4.91,2.84A.85.85,0,0,1,366,227.5Z" style="fill:#3331E7"></path><path d="M366,227.5l-24.77-14.31a.83.83,0,0,1-.38-.65v-.76a.83.83,0,0,1,.38-.66l4.91-2.84a.85.85,0,0,1,.76,0l24.77,14.3a.86.86,0,0,1,.38.66V224a.84.84,0,0,1-.38.66l-4.91,2.84A.85.85,0,0,1,366,227.5Z" style="fill:#fff;opacity:0.5"></path><path d="M371.69,223l-4.91,2.84a.85.85,0,0,1-.76,0l-24.77-14.3a.23.23,0,0,1,0-.44l4.91-2.84a.85.85,0,0,1,.76,0l24.77,14.3C371.9,222.71,371.9,222.9,371.69,223Z" style="fill:#3331E7"></path><path d="M371.69,223l-4.91,2.84a.85.85,0,0,1-.76,0l-24.77-14.3a.23.23,0,0,1,0-.44l4.91-2.84a.85.85,0,0,1,.76,0l24.77,14.3C371.9,222.71,371.9,222.9,371.69,223Z" style="fill:#fff;opacity:0.7000000000000001"></path><path d="M366.4,226v1.64a.82.82,0,0,0,.38-.09l4.91-2.84a.83.83,0,0,0,.38-.66v-.76a.83.83,0,0,0-.31-.61c.14.12.11.28-.07.39l-4.91,2.84A.82.82,0,0,1,366.4,226Z" style="opacity:0.1"></path><path d="M359.64,231.18l-24.78-14.3a.82.82,0,0,1-.37-.66v-.76a.82.82,0,0,1,.37-.65l4.92-2.84a.85.85,0,0,1,.76,0l24.77,14.3a.83.83,0,0,1,.38.65v.77a.83.83,0,0,1-.38.65l-4.92,2.84A.83.83,0,0,1,359.64,231.18Z" style="fill:#ebebeb"></path><path d="M359.64,231.18l-24.78-14.3a.82.82,0,0,1-.37-.66v-.76a.82.82,0,0,1,.37-.65l4.92-2.84a.85.85,0,0,1,.76,0l24.77,14.3a.83.83,0,0,1,.38.65v.77a.83.83,0,0,1-.38.65l-4.92,2.84A.83.83,0,0,1,359.64,231.18Z" style="fill:#3331E7"></path><path d="M359.64,231.18l-24.78-14.3a.82.82,0,0,1-.37-.66v-.76a.82.82,0,0,1,.37-.65l4.92-2.84a.85.85,0,0,1,.76,0l24.77,14.3a.83.83,0,0,1,.38.65v.77a.83.83,0,0,1-.38.65l-4.92,2.84A.83.83,0,0,1,359.64,231.18Z" style="fill:#fff;opacity:0.5"></path><path d="M365.31,226.71l-4.92,2.83a.77.77,0,0,1-.75,0l-24.78-14.3c-.21-.12-.21-.31,0-.43l4.92-2.84a.85.85,0,0,1,.76,0l24.77,14.3A.23.23,0,0,1,365.31,226.71Z" style="fill:#3331E7"></path><path d="M365.31,226.71l-4.92,2.83a.77.77,0,0,1-.75,0l-24.78-14.3c-.21-.12-.21-.31,0-.43l4.92-2.84a.85.85,0,0,1,.76,0l24.77,14.3A.23.23,0,0,1,365.31,226.71Z" style="fill:#fff;opacity:0.7000000000000001"></path><path d="M360,229.64v1.63a.76.76,0,0,0,.38-.09l4.92-2.84a.83.83,0,0,0,.38-.65v-.77a.83.83,0,0,0-.31-.6c.14.12.11.28-.07.39l-4.92,2.83A.67.67,0,0,1,360,229.64Z" style="opacity:0.1"></path><path d="M353.26,234.87l-24.78-14.31a.83.83,0,0,1-.38-.65v-.77a.83.83,0,0,1,.38-.65l4.92-2.84a.85.85,0,0,1,.76,0L358.93,230a.84.84,0,0,1,.38.66v.76a.84.84,0,0,1-.38.66L354,234.87A.83.83,0,0,1,353.26,234.87Z" style="fill:#ebebeb"></path><path d="M353.26,234.87l-24.78-14.31a.83.83,0,0,1-.38-.65v-.77a.83.83,0,0,1,.38-.65l4.92-2.84a.85.85,0,0,1,.76,0L358.93,230a.84.84,0,0,1,.38.66v.76a.84.84,0,0,1-.38.66L354,234.87A.83.83,0,0,1,353.26,234.87Z" style="fill:#3331E7"></path><path d="M353.26,234.87l-24.78-14.31a.83.83,0,0,1-.38-.65v-.77a.83.83,0,0,1,.38-.65l4.92-2.84a.85.85,0,0,1,.76,0L358.93,230a.84.84,0,0,1,.38.66v.76a.84.84,0,0,1-.38.66L354,234.87A.83.83,0,0,1,353.26,234.87Z" style="fill:#fff;opacity:0.5"></path><path d="M358.93,230.39,354,233.23a.83.83,0,0,1-.75,0l-24.78-14.3a.23.23,0,0,1,0-.44l4.92-2.84a.85.85,0,0,1,.76,0L358.93,230A.23.23,0,0,1,358.93,230.39Z" style="fill:#3331E7"></path><path d="M358.93,230.39,354,233.23a.83.83,0,0,1-.75,0l-24.78-14.3a.23.23,0,0,1,0-.44l4.92-2.84a.85.85,0,0,1,.76,0L358.93,230A.23.23,0,0,1,358.93,230.39Z" style="fill:#fff;opacity:0.7000000000000001"></path><path d="M353.63,233.32V235a.76.76,0,0,0,.38-.09l4.92-2.84a.83.83,0,0,0,.38-.66v-.76A.87.87,0,0,0,359,230c.14.12.11.28-.07.39L354,233.23A.76.76,0,0,1,353.63,233.32Z" style="opacity:0.1"></path><path d="M346.87,238.55l-24.77-14.3a.83.83,0,0,1-.38-.66v-.76a.84.84,0,0,1,.38-.66l4.92-2.83a.77.77,0,0,1,.75,0l24.78,14.3a.84.84,0,0,1,.37.65v.77a.82.82,0,0,1-.37.65l-4.92,2.84A.85.85,0,0,1,346.87,238.55Z" style="fill:#ebebeb"></path><path d="M346.87,238.55l-24.77-14.3a.83.83,0,0,1-.38-.66v-.76a.84.84,0,0,1,.38-.66l4.92-2.83a.77.77,0,0,1,.75,0l24.78,14.3a.84.84,0,0,1,.37.65v.77a.82.82,0,0,1-.37.65l-4.92,2.84A.85.85,0,0,1,346.87,238.55Z" style="fill:#3331E7"></path><path d="M346.87,238.55l-24.77-14.3a.83.83,0,0,1-.38-.66v-.76a.84.84,0,0,1,.38-.66l4.92-2.83a.77.77,0,0,1,.75,0l24.78,14.3a.84.84,0,0,1,.37.65v.77a.82.82,0,0,1-.37.65l-4.92,2.84A.85.85,0,0,1,346.87,238.55Z" style="fill:#fff;opacity:0.5"></path><path d="M352.55,234.07l-4.92,2.84a.85.85,0,0,1-.76,0l-24.77-14.3a.23.23,0,0,1,0-.44l4.92-2.83a.77.77,0,0,1,.75,0l24.78,14.3A.23.23,0,0,1,352.55,234.07Z" style="fill:#3331E7"></path><path d="M352.55,234.07l-4.92,2.84a.85.85,0,0,1-.76,0l-24.77-14.3a.23.23,0,0,1,0-.44l4.92-2.83a.77.77,0,0,1,.75,0l24.78,14.3A.23.23,0,0,1,352.55,234.07Z" style="fill:#fff;opacity:0.7000000000000001"></path><path d="M347.25,237v1.64a.76.76,0,0,0,.38-.09l4.92-2.84a.82.82,0,0,0,.37-.65v-.77a.85.85,0,0,0-.3-.6c.13.12.11.28-.07.38l-4.92,2.84A.67.67,0,0,1,347.25,237Z" style="opacity:0.1"></path><path d="M340.49,242.24l-24.77-14.31a.83.83,0,0,1-.38-.65v-.77a.83.83,0,0,1,.38-.65l4.92-2.84a.83.83,0,0,1,.75,0l24.77,14.3a.84.84,0,0,1,.38.66v.76a.84.84,0,0,1-.38.66l-4.91,2.84A.85.85,0,0,1,340.49,242.24Z" style="fill:#ebebeb"></path><path d="M340.49,242.24l-24.77-14.31a.83.83,0,0,1-.38-.65v-.77a.83.83,0,0,1,.38-.65l4.92-2.84a.83.83,0,0,1,.75,0l24.77,14.3a.84.84,0,0,1,.38.66v.76a.84.84,0,0,1-.38.66l-4.91,2.84A.85.85,0,0,1,340.49,242.24Z" style="fill:#3331E7"></path><path d="M340.49,242.24l-24.77-14.31a.83.83,0,0,1-.38-.65v-.77a.83.83,0,0,1,.38-.65l4.92-2.84a.83.83,0,0,1,.75,0l24.77,14.3a.84.84,0,0,1,.38.66v.76a.84.84,0,0,1-.38.66l-4.91,2.84A.85.85,0,0,1,340.49,242.24Z" style="fill:#fff;opacity:0.5"></path><path d="M346.16,237.76l-4.91,2.84a.85.85,0,0,1-.76,0l-24.77-14.3c-.21-.13-.21-.32,0-.44l4.92-2.84a.83.83,0,0,1,.75,0l24.77,14.3A.23.23,0,0,1,346.16,237.76Z" style="fill:#3331E7"></path><path d="M346.16,237.76l-4.91,2.84a.85.85,0,0,1-.76,0l-24.77-14.3c-.21-.13-.21-.32,0-.44l4.92-2.84a.83.83,0,0,1,.75,0l24.77,14.3A.23.23,0,0,1,346.16,237.76Z" style="fill:#fff;opacity:0.7000000000000001"></path><path d="M340.87,240.69v1.64a.82.82,0,0,0,.38-.09l4.92-2.84a.86.86,0,0,0,.37-.66V238a.83.83,0,0,0-.31-.61c.14.12.12.28-.06.39l-4.92,2.84A.82.82,0,0,1,340.87,240.69Z" style="opacity:0.1"></path><path d="M334.11,245.92l-24.77-14.3A.84.84,0,0,1,309,231v-.76a.86.86,0,0,1,.37-.66l4.92-2.84a.85.85,0,0,1,.76,0L339.78,241a.83.83,0,0,1,.38.65v.77a.83.83,0,0,1-.38.65l-4.92,2.84A.83.83,0,0,1,334.11,245.92Z" style="fill:#ebebeb"></path><path d="M334.11,245.92l-24.77-14.3A.84.84,0,0,1,309,231v-.76a.86.86,0,0,1,.37-.66l4.92-2.84a.85.85,0,0,1,.76,0L339.78,241a.83.83,0,0,1,.38.65v.77a.83.83,0,0,1-.38.65l-4.92,2.84A.83.83,0,0,1,334.11,245.92Z" style="fill:#3331E7"></path><path d="M334.11,245.92l-24.77-14.3A.84.84,0,0,1,309,231v-.76a.86.86,0,0,1,.37-.66l4.92-2.84a.85.85,0,0,1,.76,0L339.78,241a.83.83,0,0,1,.38.65v.77a.83.83,0,0,1-.38.65l-4.92,2.84A.83.83,0,0,1,334.11,245.92Z" style="fill:#fff;opacity:0.5"></path><path d="M339.78,241.44l-4.92,2.84a.83.83,0,0,1-.75,0L309.33,230a.24.24,0,0,1,0-.44l4.92-2.84a.85.85,0,0,1,.76,0L339.78,241C340,241.13,340,241.32,339.78,241.44Z" style="fill:#3331E7"></path><path d="M339.78,241.44l-4.92,2.84a.83.83,0,0,1-.75,0L309.33,230a.24.24,0,0,1,0-.44l4.92-2.84a.85.85,0,0,1,.76,0L339.78,241C340,241.13,340,241.32,339.78,241.44Z" style="fill:#fff;opacity:0.7000000000000001"></path><path d="M334.49,244.37V246a.82.82,0,0,0,.38-.09l4.91-2.84a.83.83,0,0,0,.38-.65v-.77a.83.83,0,0,0-.31-.6c.14.12.11.28-.07.38l-4.91,2.84A.71.71,0,0,1,334.49,244.37Z" style="opacity:0.1"></path><path d="M327.73,249.61,303,235.3a.83.83,0,0,1-.38-.65v-.77a.83.83,0,0,1,.38-.65l4.92-2.84a.85.85,0,0,1,.76,0l24.77,14.3a.84.84,0,0,1,.38.66v.76a.84.84,0,0,1-.38.66l-4.92,2.84A.83.83,0,0,1,327.73,249.61Z" style="fill:#ebebeb"></path><path d="M327.73,249.61,303,235.3a.83.83,0,0,1-.38-.65v-.77a.83.83,0,0,1,.38-.65l4.92-2.84a.85.85,0,0,1,.76,0l24.77,14.3a.84.84,0,0,1,.38.66v.76a.84.84,0,0,1-.38.66l-4.92,2.84A.83.83,0,0,1,327.73,249.61Z" style="fill:#3331E7"></path><path d="M327.73,249.61,303,235.3a.83.83,0,0,1-.38-.65v-.77a.83.83,0,0,1,.38-.65l4.92-2.84a.85.85,0,0,1,.76,0l24.77,14.3a.84.84,0,0,1,.38.66v.76a.84.84,0,0,1-.38.66l-4.92,2.84A.83.83,0,0,1,327.73,249.61Z" style="fill:#fff;opacity:0.5"></path><path d="M333.4,245.13,328.48,248a.83.83,0,0,1-.75,0L303,233.66c-.21-.12-.21-.31,0-.43l4.92-2.84a.85.85,0,0,1,.76,0l24.77,14.3A.23.23,0,0,1,333.4,245.13Z" style="fill:#3331E7"></path><path d="M333.4,245.13,328.48,248a.83.83,0,0,1-.75,0L303,233.66c-.21-.12-.21-.31,0-.43l4.92-2.84a.85.85,0,0,1,.76,0l24.77,14.3A.23.23,0,0,1,333.4,245.13Z" style="fill:#fff;opacity:0.7000000000000001"></path><path d="M328.1,248.06v1.64a.89.89,0,0,0,.38-.09l4.92-2.84a.86.86,0,0,0,.38-.66v-.76a.87.87,0,0,0-.31-.61c.14.12.11.28-.07.39L328.48,248A.76.76,0,0,1,328.1,248.06Z" style="opacity:0.1"></path><path d="M321.34,253.29,296.57,239a.84.84,0,0,1-.38-.66v-.76a.84.84,0,0,1,.38-.66l4.92-2.84a.83.83,0,0,1,.75,0L327,248.38a.83.83,0,0,1,.38.65v.77a.83.83,0,0,1-.38.65l-4.92,2.84A.85.85,0,0,1,321.34,253.29Z" style="fill:#ebebeb"></path><path d="M321.34,253.29,296.57,239a.84.84,0,0,1-.38-.66v-.76a.84.84,0,0,1,.38-.66l4.92-2.84a.83.83,0,0,1,.75,0L327,248.38a.83.83,0,0,1,.38.65v.77a.83.83,0,0,1-.38.65l-4.92,2.84A.85.85,0,0,1,321.34,253.29Z" style="fill:#3331E7"></path><path d="M321.34,253.29,296.57,239a.84.84,0,0,1-.38-.66v-.76a.84.84,0,0,1,.38-.66l4.92-2.84a.83.83,0,0,1,.75,0L327,248.38a.83.83,0,0,1,.38.65v.77a.83.83,0,0,1-.38.65l-4.92,2.84A.85.85,0,0,1,321.34,253.29Z" style="fill:#fff;opacity:0.5"></path><path d="M327,248.81l-4.92,2.84a.85.85,0,0,1-.76,0l-24.77-14.3a.23.23,0,0,1,0-.44l4.92-2.84a.83.83,0,0,1,.75,0L327,248.38C327.23,248.5,327.23,248.69,327,248.81Z" style="fill:#3331E7"></path><path d="M327,248.81l-4.92,2.84a.85.85,0,0,1-.76,0l-24.77-14.3a.23.23,0,0,1,0-.44l4.92-2.84a.83.83,0,0,1,.75,0L327,248.38C327.23,248.5,327.23,248.69,327,248.81Z" style="fill:#fff;opacity:0.7000000000000001"></path><path d="M321.72,251.74v1.64a.76.76,0,0,0,.38-.09l4.92-2.84a.82.82,0,0,0,.37-.66V249a.85.85,0,0,0-.3-.6c.13.11.11.28-.07.38l-4.92,2.84A.67.67,0,0,1,321.72,251.74Z" style="opacity:0.1"></path><rect x="353.36" y="188.75" width="29.48" height="29.48" rx="0.7" transform="translate(7.83 420.53) rotate(-60)" style="fill:#3331E7"></rect><rect x="353.36" y="188.75" width="29.48" height="29.48" rx="0.7" transform="translate(7.83 420.53) rotate(-60)" style="fill:#fff;opacity:0.5"></rect><path d="M376.1,217.69a.7.7,0,0,1,.26,1l-2.13,3.7a.7.7,0,0,1-1,.26l-25.74-14.86a.7.7,0,0,1-.25-1l2.14-3.7a.7.7,0,0,1,.95-.26l24.92,14.39Z" style="fill:#3331E7"></path><path d="M376.1,217.69a.7.7,0,0,1,.26,1l-2.13,3.7a.7.7,0,0,1-1,.26l-25.74-14.86a.7.7,0,0,1-.25-1l2.14-3.7a.7.7,0,0,1,.95-.26l24.92,14.39Z" style="fill:#fff;opacity:0.5"></path><path d="M376.1,217.69a.7.7,0,0,1,.26,1l-2.13,3.7a.7.7,0,0,1-1,.26l-25.74-14.86a.7.7,0,0,1-.25-1l2.14-3.7a.7.7,0,0,1,.95-.26l24.92,14.39Z" style="opacity:0.1"></path><rect x="358.27" y="197.57" width="5.67" height="29.48" rx="0.7" transform="translate(-3.32 418.87) rotate(-60)" style="fill:#3331E7"></rect><rect x="358.27" y="197.57" width="5.67" height="29.48" rx="0.7" transform="translate(-3.32 418.87) rotate(-60)" style="fill:#fff;opacity:0.7000000000000001"></rect><path d="M379.26,212.22a.69.69,0,0,1,.26.95l-2.13,3.7a.7.7,0,0,1-1,.26L350.7,202.27a.69.69,0,0,1-.26-1l2.14-3.71a.69.69,0,0,1,.95-.25l24.92,14.39Z" style="fill:#3331E7"></path><path d="M379.26,212.22a.69.69,0,0,1,.26.95l-2.13,3.7a.7.7,0,0,1-1,.26L350.7,202.27a.69.69,0,0,1-.26-1l2.14-3.71a.69.69,0,0,1,.95-.25l24.92,14.39Z" style="fill:#fff;opacity:0.5"></path><path d="M379.26,212.22a.69.69,0,0,1,.26.95l-2.13,3.7a.7.7,0,0,1-1,.26L350.7,202.27a.69.69,0,0,1-.26-1l2.14-3.71a.69.69,0,0,1,.95-.25l24.92,14.39Z" style="opacity:0.1"></path><rect x="361.44" y="192.09" width="5.67" height="29.48" rx="0.7" transform="translate(3 418.87) rotate(-60)" style="fill:#3331E7"></rect><rect x="361.44" y="192.09" width="5.67" height="29.48" rx="0.7" transform="translate(3 418.87) rotate(-60)" style="fill:#fff;opacity:0.7000000000000001"></rect><path d="M382.43,206.74a.69.69,0,0,1,.25.95l-2.13,3.7a.69.69,0,0,1-.95.26l-25.74-14.86a.69.69,0,0,1-.26-.95l2.14-3.71a.7.7,0,0,1,1-.25l24.91,14.39Z" style="fill:#3331E7"></path><path d="M382.43,206.74a.69.69,0,0,1,.25.95l-2.13,3.7a.69.69,0,0,1-.95.26l-25.74-14.86a.69.69,0,0,1-.26-.95l2.14-3.71a.7.7,0,0,1,1-.25l24.91,14.39Z" style="fill:#fff;opacity:0.5"></path><path d="M382.43,206.74a.69.69,0,0,1,.25.95l-2.13,3.7a.69.69,0,0,1-.95.26l-25.74-14.86a.69.69,0,0,1-.26-.95l2.14-3.71a.7.7,0,0,1,1-.25l24.91,14.39Z" style="opacity:0.1"></path><rect x="364.6" y="186.62" width="5.67" height="29.48" rx="0.7" transform="translate(9.33 418.87) rotate(-60)" style="fill:#3331E7"></rect><rect x="364.6" y="186.62" width="5.67" height="29.48" rx="0.7" transform="translate(9.33 418.87) rotate(-60)" style="fill:#fff;opacity:0.7000000000000001"></rect><path d="M382.43,206.74a.69.69,0,0,1,.25.95l-2.13,3.7a.69.69,0,0,1-.95.26l-25.74-14.86a.69.69,0,0,1-.26-.95l2.14-3.71a.7.7,0,0,1,1-.25l24.91,14.39Z" style="fill:#3331E7"></path><path d="M382.43,206.74a.69.69,0,0,1,.25.95l-2.13,3.7a.69.69,0,0,1-.95.26l-25.74-14.86a.69.69,0,0,1-.26-.95l2.14-3.71a.7.7,0,0,1,1-.25l24.91,14.39Z" style="fill:#fff;opacity:0.5"></path><path d="M382.43,206.74a.69.69,0,0,1,.25.95l-2.13,3.7a.69.69,0,0,1-.95.26l-25.74-14.86a.69.69,0,0,1-.26-.95l2.14-3.71a.7.7,0,0,1,1-.25l24.91,14.39Z" style="opacity:0.1"></path><rect x="364.6" y="186.62" width="5.67" height="29.48" rx="0.7" transform="translate(9.33 418.87) rotate(-60)" style="fill:#3331E7"></rect><rect x="364.6" y="186.62" width="5.67" height="29.48" rx="0.7" transform="translate(9.33 418.87) rotate(-60)" style="fill:#fff;opacity:0.7000000000000001"></rect><path d="M385.59,201.26a.7.7,0,0,1,.26,1l-2.14,3.71a.7.7,0,0,1-.95.25L357,191.31a.69.69,0,0,1-.25-.95l2.13-3.71a.71.71,0,0,1,1-.25l24.92,14.39Z" style="fill:#3331E7"></path><path d="M385.59,201.26a.7.7,0,0,1,.26,1l-2.14,3.71a.7.7,0,0,1-.95.25L357,191.31a.69.69,0,0,1-.25-.95l2.13-3.71a.71.71,0,0,1,1-.25l24.92,14.39Z" style="fill:#fff;opacity:0.5"></path><path d="M385.59,201.26a.7.7,0,0,1,.26,1l-2.14,3.71a.7.7,0,0,1-.95.25L357,191.31a.69.69,0,0,1-.25-.95l2.13-3.71a.71.71,0,0,1,1-.25l24.92,14.39Z" style="opacity:0.1"></path><rect x="367.76" y="181.14" width="5.67" height="29.48" rx="0.7" transform="translate(15.66 418.87) rotate(-60)" style="fill:#3331E7"></rect><rect x="367.76" y="181.14" width="5.67" height="29.48" rx="0.7" transform="translate(15.66 418.87) rotate(-60)" style="fill:#fff;opacity:0.7000000000000001"></rect><path d="M385.59,201.26a.7.7,0,0,1,.26,1l-2.14,3.71a.7.7,0,0,1-.95.25L357,191.31a.69.69,0,0,1-.25-.95l2.13-3.71a.71.71,0,0,1,1-.25l24.92,14.39Z" style="fill:#3331E7"></path><path d="M385.59,201.26a.7.7,0,0,1,.26,1l-2.14,3.71a.7.7,0,0,1-.95.25L357,191.31a.69.69,0,0,1-.25-.95l2.13-3.71a.71.71,0,0,1,1-.25l24.92,14.39Z" style="fill:#fff;opacity:0.5"></path><path d="M385.59,201.26a.7.7,0,0,1,.26,1l-2.14,3.71a.7.7,0,0,1-.95.25L357,191.31a.69.69,0,0,1-.25-.95l2.13-3.71a.71.71,0,0,1,1-.25l24.92,14.39Z" style="opacity:0.1"></path><rect x="367.76" y="181.14" width="5.67" height="29.48" rx="0.7" transform="translate(15.66 418.87) rotate(-60)" style="fill:#3331E7"></rect><rect x="367.76" y="181.14" width="5.67" height="29.48" rx="0.7" transform="translate(15.66 418.87) rotate(-60)" style="fill:#fff;opacity:0.7000000000000001"></rect><path d="M388.75,195.78a.69.69,0,0,1,.26.95l-2.13,3.71a.7.7,0,0,1-1,.25l-25.74-14.86a.7.7,0,0,1-.25-1l2.14-3.7a.69.69,0,0,1,.95-.26l24.92,14.39Z" style="fill:#3331E7"></path><path d="M388.75,195.78a.69.69,0,0,1,.26.95l-2.13,3.71a.7.7,0,0,1-1,.25l-25.74-14.86a.7.7,0,0,1-.25-1l2.14-3.7a.69.69,0,0,1,.95-.26l24.92,14.39Z" style="fill:#fff;opacity:0.5"></path><path d="M388.75,195.78a.69.69,0,0,1,.26.95l-2.13,3.71a.7.7,0,0,1-1,.25l-25.74-14.86a.7.7,0,0,1-.25-1l2.14-3.7a.69.69,0,0,1,.95-.26l24.92,14.39Z" style="opacity:0.1"></path><rect x="370.93" y="175.66" width="5.67" height="29.48" rx="0.7" transform="translate(21.98 418.87) rotate(-60)" style="fill:#3331E7"></rect><rect x="370.93" y="175.66" width="5.67" height="29.48" rx="0.7" transform="translate(21.98 418.87) rotate(-60)" style="fill:#fff;opacity:0.7000000000000001"></rect></g></g><g id="freepik--character-2--inject-18"><g id="freepik--Character--inject-18"><path d="M307.49,302.69c.14,1.29.16,2.11.32,3.54a31.41,31.41,0,0,1,.23,3.5,5.7,5.7,0,0,1-.93,3,21.88,21.88,0,0,1-2.1,3.59,8.39,8.39,0,0,1-2.86,2.85,3.19,3.19,0,0,0-.58.3,1.06,1.06,0,0,0-.44.84,1.18,1.18,0,0,0,.43.85,6.13,6.13,0,0,0,4,1.24,6,6,0,0,0,4.12-1.08c2.24-1.72,1.8-4.1,3.51-6.34.43-.57.79-1,1.19-1.46s.91-.89,1-1.62c.22-1.76-1.23-2.8-1.23-3.57,0-1.48.2-3.36.37-5.7Z" style="fill:#b16668"></path><path d="M295.92,296c.13,1.29.19,2.34.35,3.76a31.57,31.57,0,0,1,.23,3.5,5.81,5.81,0,0,1-.92,3,22.67,22.67,0,0,1-2.11,3.59,8.39,8.39,0,0,1-2.86,2.85,2.7,2.7,0,0,0-.58.31,1,1,0,0,0-.44.84,1.19,1.19,0,0,0,.44.85,6.08,6.08,0,0,0,4,1.23,6,6,0,0,0,4.12-1.08c2.24-1.72,1.8-4.09,3.51-6.34.43-.57.79-1,1.19-1.46s.91-.89,1-1.61c.22-1.77-1.23-2.8-1.22-3.58,0-1.48.19-3.36.36-5.69Z" style="fill:#b16668"></path><path d="M307.49,302.69c.14,1.29.16,2.11.32,3.54a31.41,31.41,0,0,1,.23,3.5,5.7,5.7,0,0,1-.93,3,21.88,21.88,0,0,1-2.1,3.59,8.39,8.39,0,0,1-2.86,2.85,3.19,3.19,0,0,0-.58.3,1.06,1.06,0,0,0-.44.84,1.18,1.18,0,0,0,.43.85,6.13,6.13,0,0,0,4,1.24,6,6,0,0,0,4.12-1.08c2.24-1.72,1.8-4.1,3.51-6.34.43-.57.79-1,1.19-1.46s.91-.89,1-1.62c.22-1.76-1.23-2.8-1.23-3.57,0-1.48.2-3.36.37-5.7Z" style="fill:#fff;opacity:0.2"></path><path d="M295.92,296c.13,1.29.19,2.34.35,3.76a31.57,31.57,0,0,1,.23,3.5,5.81,5.81,0,0,1-.92,3,22.67,22.67,0,0,1-2.11,3.59,8.39,8.39,0,0,1-2.86,2.85,2.7,2.7,0,0,0-.58.31,1,1,0,0,0-.44.84,1.19,1.19,0,0,0,.44.85,6.08,6.08,0,0,0,4,1.23,6,6,0,0,0,4.12-1.08c2.24-1.72,1.8-4.09,3.51-6.34.43-.57.79-1,1.19-1.46s.91-.89,1-1.61c.22-1.77-1.23-2.8-1.22-3.58,0-1.48.19-3.36.36-5.69Z" style="fill:#fff;opacity:0.2"></path><g id="freepik--Bottom--inject-18"><path d="M306.44,281.05c-2.1,1.42-7.56-1.95-8.76-3.92s-1.34-3.1.19-4.19S309.26,276.63,306.44,281.05Z" style="fill:#3331E7"></path><path d="M306.44,281.05c-2.1,1.42-7.56-1.95-8.76-3.92s-1.34-3.1.19-4.19S310.69,277.56,306.44,281.05Z" style="fill:#263238"></path><path d="M308.23,280.51c-.5.47-1.49,1.88,2.15,4.43s5.55,4.73,7.78,3.34C322,285.9,313,277.65,308.23,280.51Z" style="fill:#263238"></path><path d="M295.92,296a1.78,1.78,0,0,0,1.07,1.5,5.47,5.47,0,0,0,5.07,0,1.62,1.62,0,0,0,1-1.32c.15-2.11.75-6.09,1-8.58a28.73,28.73,0,0,0,0-5.6l11-6.88c-.24.23-6.91,5.48-8.33,7.36a5.44,5.44,0,0,0-.85,3.7c.24,3.53,1.11,10.69,1.6,15.92h0c0,.19,0,.38,0,.56h0a1.78,1.78,0,0,0,.91,1.08,5.74,5.74,0,0,0,5.17,0,2,2,0,0,0,1-1.07v0c.38-3.22.7-5.91.81-7.23a70.55,70.55,0,0,0,.3-7.59s11.42-6.47,14.93-9.06c7.44-5.48,6.81-7.27,7.11-14.18l-20.45-3.44c-2.63,2.22-21.18,11.59-22.36,15C294.51,277.3,295.44,289.11,295.92,296Z" style="fill:#b16668"></path><path d="M311.15,278.11a31.3,31.3,0,0,0-2.92,2.4s2.35-1,6,1.32c1.92,1.22,5.85,4.25,3.92,6.45,0,0,12.06-7.31,15.63-10.79s4.23-7.06,4.19-12.84l-20.71-3.47s-7.62,4.12-12.36,7.09c-5.54,3.48-7,4.67-7,4.67s1.52-.42,4.37,1.43c4.1,2.66,5.33,5.55,4.2,6.68Z" style="fill:#455a64"></path><path d="M311.15,278.11l7-6.06a14.62,14.62,0,0,1-3.33-4.19,5.82,5.82,0,0,0,1.91,4.19l-5.84,5.67-4.46,3.33Z" style="fill:#37474f"></path></g><path d="M290.51,232.56a3.94,3.94,0,0,1,2.84-2.81.82.82,0,0,1,.6.05.92.92,0,0,1,.31.55c.32,1.09.69,2.17,1.11,3.23a17,17,0,0,0,.67,1.58c.07.13.56.67.57.73a7.42,7.42,0,0,1,0-1.73,1,1,0,0,1,1.06-.89c.23,0,.11.59.38,1.47a11,11,0,0,1,.81,3.11,2,2,0,0,0,.55,1.28c1.57,1.65,6.11,4.68,9.13,6.61,1.64-2,2.88-4.36,5.17-7.34,2.83-3.68,4.35-5,9.19-4.84l-.88,7c-2.61,3.37-4.95,5.63-10.07,11.13a5,5,0,0,1-2.91,1.89,5.08,5.08,0,0,1-3.4-1.4c-2.32-1.87-4.49-3.75-6.67-5.79-3-2.78-6.73-6.44-8.08-9.77A6.39,6.39,0,0,1,290.51,232.56Z" style="fill:#b16668"></path><path d="M330.16,233.65s6.76,1.57,8.08,2.27l1,9.91L337.92,253l-.11,12.87c-3,3.43-18.31,3.39-20.38-3.74,0,0-.75-17-.63-20.42.14-3.7,2-7.65,5.72-8.12Z" style="fill:#b16668"></path><path d="M338.28,251l-1-4.25a13.27,13.27,0,0,1-1.43-4.92,11.53,11.53,0,0,0,.84,5.28l.95,4.49-.21,2,.47,2.8,0-3.47Z" style="fill:#9a4a4d"></path><path d="M336.15,216.45a2.34,2.34,0,0,0-2-.34,1.23,1.23,0,0,0-.43.21,1.28,1.28,0,0,0-.26.38c-.05.08-.08.17-.12.25a6.67,6.67,0,0,0-.18,2.18L333,221c-.06.82-.11,1.63-.17,2.45l-.5,0-.13,3.46v2.88l.29,0a2.38,2.38,0,0,0,1.55-1.36,8.78,8.78,0,0,0,.62-1.64,9.2,9.2,0,0,0,.48-2.26,2.74,2.74,0,0,0,1.06-.47,2.2,2.2,0,0,0,.76-1.68,3.37,3.37,0,0,0-.58-1.79c-.06-.11-.14-.22-.11-.34a.54.54,0,0,1,.1-.16,3,3,0,0,0,.7-1.73A2.28,2.28,0,0,0,336.15,216.45Z" style="fill:#263238"></path><path d="M318.37,215.67a.25.25,0,0,0-.12,0,.22.22,0,0,0-.12.09,3.45,3.45,0,0,0-.72,2.05,3.18,3.18,0,0,0,.35,1.63,2.16,2.16,0,0,0,1.24,1.06.91.91,0,0,0,.49,0,1,1,0,0,0,.47-.31,5,5,0,0,0,.57-.79,2.31,2.31,0,0,0,.46-1.62.49.49,0,0,0-.12-.25.59.59,0,0,0-.2-.15,8.11,8.11,0,0,1-.89-.65c-.26-.18-.52-.37-.77-.58S318.65,215.76,318.37,215.67Z" style="fill:#263238"></path><path d="M332.25,224c.38.21.89-.51,1.33-1a1.61,1.61,0,0,1,2.7.38c.8,1.58-.4,3.6-1.45,4.24a1.84,1.84,0,0,1-2.37-.33l.19,7.29a7.91,7.91,0,0,1-5.26,3.43c-3.58.56-2.9-2.41-1.76-3.88l0-2.22a12.66,12.66,0,0,1-2.72.2c-1.5-.2-2.8-.51-3.35-3s-.85-4.63-.54-10c.33-5.6,7.38-5.53,10.92-3.41S332.25,224,332.25,224Z" style="fill:#b16668"></path><path d="M323,218.87a2.52,2.52,0,0,0,2.24-1.29,2.51,2.51,0,0,0,1.25.92,3.68,3.68,0,0,0,1.55,0,6.16,6.16,0,0,1,1.4-.21,1.37,1.37,0,0,1,1.08.53,5.15,5.15,0,0,1,.42,1.56c.36,1.59.69,4.29,1.32,4.29.18,0,.86-1.19,1.31-1.62.19-.18.19-.55.21-.78a9.3,9.3,0,0,0-.07-1.67,4.59,4.59,0,0,1,.17-1.51c.14-.65.51-1.24.7-1.89a3.64,3.64,0,0,0-.79-3.56,3.13,3.13,0,0,0-3.53-.67,3.13,3.13,0,0,0-5.22-1.22,2.73,2.73,0,0,1-.23-.42,2,2,0,0,0-.29-.46,2.47,2.47,0,0,0-.85-.65,3.49,3.49,0,0,0-1.86-.29,3.83,3.83,0,0,0-.59.1,3.24,3.24,0,0,0-1.7,1.21,2.62,2.62,0,0,0-.38.91c0,.08-.13,1,0,1a2.34,2.34,0,0,0-2.2,1.71,2.22,2.22,0,0,0,1.08,2.54,3,3,0,0,0,1.45.25c.13,0,1.4-.25,1.35-.42a2.49,2.49,0,0,0,2.1,1.67Z" style="fill:#263238"></path><path d="M325.59,231.94a25,25,0,0,0,4.45-1.39,3.84,3.84,0,0,0,1.57-1.62,5.3,5.3,0,0,1-.87,1.89c-.83,1.11-5.13,2-5.13,2Z" style="fill:#9a4a4d"></path><path d="M325.56,223.19a.67.67,0,1,0,.65-.71A.68.68,0,0,0,325.56,223.19Z" style="fill:#263238"></path><path d="M326.08,220.79l1.44.76a.86.86,0,0,0-.36-1.13A.79.79,0,0,0,326.08,220.79Z" style="fill:#263238"></path><path d="M326.05,227.54l-1.67.67a.88.88,0,0,0,1.16.53A.93.93,0,0,0,326.05,227.54Z" style="fill:#9a4a4d"></path><path d="M319.76,221.49l1.27-1a.78.78,0,0,0-1.13-.15A.86.86,0,0,0,319.76,221.49Z" style="fill:#263238"></path><path d="M320.18,223a.67.67,0,1,0,1.33,0,.67.67,0,1,0-1.33,0Z" style="fill:#263238"></path><polygon points="323.56 222.54 323.43 226.54 321.33 225.88 323.56 222.54" style="fill:#9a4a4d"></polygon><path d="M317.28,258.55c-.27-.14-.24,2.75-.24,2.75a7.05,7.05,0,0,0,4.68,6c6.51,2.41,13,1.76,16.24-.47,0,0,.24-.2.26-2.31s-.38-1.74-.38-1.74v.75s-2.84,2.75-11,1.91C321,264.8,317.93,261.32,317.28,258.55Z" style="fill:#37474f"></path><path d="M316.86,246.52a26.05,26.05,0,0,1,.92-6.88,9.09,9.09,0,0,0-1.4,4,24.44,24.44,0,0,0-.33,3.78Z" style="fill:#9a4a4d"></path><path d="M336.54,235.3c2.63.56,4,.61,5.94,2.55,1.43,1.45,1.36,3.25,2.06,6.77.81,4,1.4,11.46,1.73,14.08a13.68,13.68,0,0,1-.11,3c-.14,1.66-.33,3.32-.52,5s-.44,3.54-.68,5.32c-.16,1.22-.39,2.43-.45,3.66a13,13,0,0,0-.09,1.38,2.45,2.45,0,0,1-.3,1.55c-.62.91-1.78,1.14-2.73,1.55-.34.15-.67.34-1,.52-.91.5-1.82,1-2.7,1.53a4.26,4.26,0,0,1-2.68.69,5.63,5.63,0,0,1-2.31-.68c-.6-.42-.16-1.16.21-1.59l1.56-1.8a6.63,6.63,0,0,1,2.25-1.86,13.67,13.67,0,0,0,2.78-1.4.86.86,0,0,0,.39-.88c0-.29,0-.58,0-.87l.08-5.44.09-5.91,0-2.77-3-13.63S334.37,239.33,336.54,235.3Z" style="fill:#b16668"></path></g></g><g id="freepik--character-1--inject-18"><path id="freepik--shadow--inject-18" d="M174.66,309.62c-16.31-8.58-42.74-8.58-59,0-15,7.89-15,25.39,0,33.27,16.31,8.59,42.74,8.59,59.05,0C189.65,335,189.65,317.51,174.66,309.62Z" style="opacity:0.1"></path><path d="M175.22,300.75c-16.31-9.41-42.75-9.41-59,0-15,8.66-15,27.86,0,36.51,16.3,9.41,42.74,9.41,59.05,0C190.2,328.61,190.21,309.41,175.22,300.75Zm-15.09,20.81c-8,4.61-20.9,4.61-28.88,0a13.9,13.9,0,0,1-4.37-3.77,13.66,13.66,0,0,1,4.37-3.77c8-4.6,20.9-4.6,28.88,0a13.7,13.7,0,0,1,4.38,3.77A14,14,0,0,1,160.13,321.56Z" style="fill:#455a64"></path><path d="M160.13,304.89c-8-4.59-20.9-4.59-28.88,0-6,3.49-7.5,8.62-4.37,12.9a13.66,13.66,0,0,1,4.37-3.77c8-4.6,20.9-4.6,28.88,0a13.7,13.7,0,0,1,4.38,3.77C167.63,313.51,166.16,308.38,160.13,304.89Z" style="fill:#37474f"></path><g id="freepik--character--inject-18"><path d="M152.75,301.75a12,12,0,0,0-2.11-.37,5,5,0,0,0-1.09.16,8.82,8.82,0,0,0-1.87.65l-1.39.64-3.37,1.58-2.83,1.34-.82.39s-2.06-4.29-2.06-4.29c1.69-.74,2.83-1.29,4.22-1.93,2-.94,3.84-1.69,5.8-2.51.48-.2,1-.38,1.46-.54s.89-.38,1.34-.55a14.9,14.9,0,0,1,3.14-.79,8,8,0,0,1,5.69,1.35c.25.19.49.51.24.81a1,1,0,0,1-.34.22,17,17,0,0,1-2.08.59,9.51,9.51,0,0,0-1.93.78,2.62,2.62,0,0,0-.55.39c-.16.16-.3.33,0,.48a5,5,0,0,0,.88.29,7.8,7.8,0,0,1,.94.4,1.58,1.58,0,0,1,.68.54.31.31,0,0,1-.09.43.39.39,0,0,1-.21,0l-1,0a12.85,12.85,0,0,1-2.15-.06A2.76,2.76,0,0,1,152.75,301.75Z" style="fill:#ffa8a7"></path><path d="M203.79,323.08c-4.28-.37-8.14-2.28-11.65-4.48-2.75-2.18-16-12.7-18.19-14.07-2.57-1.64-13.25-1.26-18.43-1-1.73.1-10.63,1.38-10.63,1.38l-9.29,1.58c1.12,3,2,5.32,4.52,7.49s6.17,2.63,11.25,2.51c4.2-.1,14.71-3.06,15.89-3.22s2.1-.8,3.48.79,1.69,2.49,4.83,3.74c4,1.59,10.29,2.89,13.51,5.22a6.08,6.08,0,0,1,1.33,2.17c1.09,3.08,3.56,1.74,6.06,2.53,1.36.43,2.47,1.1,3.95,1a9.17,9.17,0,0,0,3.82-1.11,5.59,5.59,0,0,0,2.72-3.1C207.3,322.89,205.23,323.2,203.79,323.08Z" style="fill:#ffa8a7"></path><path d="M170.74,312.57c-1.43-2.2-5-1.6-8.17-1.65-2.68,0-15.88.32-15.88.32a25.82,25.82,0,0,0-1.8-6.3l-6.84,6.81a11.63,11.63,0,0,0,2.07,2.26c2.56,2.16,6.17,2.63,11.25,2.51,4.2-.1,14.71-3.06,15.89-3.22s2.1-.8,3.48.79,1.69,2.49,4.83,3.74C172.57,316.3,171.56,313.83,170.74,312.57Z" style="fill:#f28f8f"></path><path d="M200,333.84a5.66,5.66,0,0,1-2.72,3.1,9.28,9.28,0,0,1-3.82,1.12c-1.48.06-2.59-.61-3.94-1-2.51-.8-5,.55-6.07-2.53a6,6,0,0,0-1.33-2.17l-.53-.36c-3.35-2.11-9.17-3.36-13-4.87-3.13-1.24-3.47-2.16-4.84-3.73s-2.29-.94-3.47-.79c-.5.06-2.64.55-5.28,1.12-1.39.32-2.91.65-4.39,1l-.11,0a33.47,33.47,0,0,1-16.14-1.63h0c-.59-.22-1.15-.47-1.71-.73-1.1-1.13-1.44-3.66-2.75-5.88l3.46-2.35,2.7-2.14,8.79-7v0a20.18,20.18,0,0,1,.68,3.06,21.05,21.05,0,0,1,.17,2.54,13.55,13.55,0,0,1-.17,2.06h0s5.56-.31,11.1-.22c4.42.08,8.82.42,10.35,1.39,2,1.29,13.8,10.6,17.55,13.56l.51.41a28.6,28.6,0,0,0,11.69,4.38C198,332.3,200.38,332.17,200,333.84Z" style="fill:#ffa8a7"></path><path d="M120.63,293.12l-4.12,2.81s3,1.28,4.57,5.86a9,9,0,0,1,.25,5.13c1.3,4.12,8.61,9.52,8.61,9.52s3.85,1.46,9.88-3.32c5.29-4.2,5.07-8.18,5.07-8.18l-5.1-.2-1.48-2.89a37.63,37.63,0,0,0-4.14-8.47l-.2-.26a6.05,6.05,0,0,0-6.7-2.08l-2.45.79Z" style="fill:#ffa8a7"></path><polygon points="134.26 294.61 130.91 293.5 134.56 293.93 135.02 294.61 134.26 294.61" style="fill:#f28f8f"></polygon><path d="M122.07,308.08l-.32-1.83a22.23,22.23,0,0,0-.15-3.6,7.52,7.52,0,0,1,.7,3.6l.88,1.91Z" style="fill:#f28f8f"></path><path d="M146.06,310.57a6,6,0,0,1-.48,2.06s-5.75.53-9.5,4.43a6.46,6.46,0,0,0-2,3.81h0a4.68,4.68,0,0,0,.31,2.17c-.59-.22-1.15-.47-1.71-.73l-.36-.18a10.45,10.45,0,0,1-2.14-5c-4.2-2.8-6.82-5.17-8.58-8.31,0,0,.12-.18.32-.53l.28-.48c.12-.23.26-.5.43-.81v0a33.24,33.24,0,0,0,1.43-3.1c1.61-3.94,3.75-5.65,8.31-4.77a4.8,4.8,0,0,1,1.86-4.52h.08a5.86,5.86,0,0,1,3.87,1.21c2.57,2.17.45,6.06.45,6.06l1.14,2.86,5.1.2v0A13.63,13.63,0,0,1,146.06,310.57Z" style="fill:#3331E7"></path><path d="M134.09,320.88h0c-1.73-2.19-.78-5.05-.55-6.29a.52.52,0,0,0-.14-.49,2.65,2.65,0,0,0-1.64-.35,11.32,11.32,0,0,1-3.95-.49c-2.11-1-4.63-5.09-5.16-6.24v0c-.17.31-.31.58-.43.81l-.28.48c-.2.35-.32.53-.32.53,1.76,3.14,4.38,5.51,8.58,8.31a10.45,10.45,0,0,0,2.14,5l.36.18c.56.26,1.12.51,1.71.73A4.68,4.68,0,0,1,134.09,320.88Z" style="opacity:0.1"></path><path d="M127.81,307.54a5.14,5.14,0,0,0,4.29,0,4.61,4.61,0,0,0,3.21-4.46s1.45,3-2.35,5A4.47,4.47,0,0,1,127.81,307.54Z" style="opacity:0.1"></path><path d="M142.22,331.5a19.9,19.9,0,0,1-3.41-1.14A9.32,9.32,0,0,0,141,330a1.32,1.32,0,0,0,1-1.5c-.07-.28-.75,0-1.91-.23a13.83,13.83,0,0,0-4.06-.5,2.91,2.91,0,0,1-2.17-.53c-1.83-1.77-9.35-9.31-9.35-9.31l-2.82-11.36s.89-7.86-5.19-10.68c-4.27,3.07-3.53,5.29-1.72,11.91,1.61,5.94,3.84,13.14,4.63,14.16a42.72,42.72,0,0,0,3.55,3.81,125.6,125.6,0,0,0,11.21,8.53c4.16,2.32,6.6,2.29,8.83,1.36C146.6,334.21,145.17,332.24,142.22,331.5Z" style="fill:#ffa8a7"></path><path d="M114.31,270.15c1.92,1.64,1.17,4-.69,6.21s-4.1,3.3-6,1.66a4.91,4.91,0,0,1-.14-6.91C109.32,268.93,112.38,268.5,114.31,270.15Z" style="fill:#263238"></path><path d="M124,270.79c-7.84-1-12.54,3.12-13.23,7.94a10.62,10.62,0,0,0,3.2,8.62,21.29,21.29,0,0,0,2.4,2,3.15,3.15,0,0,0,2.11.74l-.44-1.58a7.27,7.27,0,0,0,3.63.34l1.9-.29c4.5-.67,5.78-6.58,6.9-11.95S127.78,271.29,124,270.79Z" style="fill:#263238"></path><path d="M126.29,274.19c1.17.46,2.94,2.95,3.72,8.63.67,4.82-.69,6.26-1.42,6.72s-2.27.51-3.77.5l.38,2.34s3,2.2,3,3.54-3.12,2.47-5.22,1.49a28.92,28.92,0,0,1-4-2.3l-1.2-7.57s-.72,1-2.39-.06c-1.38-.86-2.07-2.58-1.29-3.68a2.13,2.13,0,0,1,3.45.12,18.65,18.65,0,0,0,5-2.92A9,9,0,0,0,126.29,274.19Z" style="fill:#ffa8a7"></path><path d="M123.78,282.58a.61.61,0,1,1-.71-.52A.62.62,0,0,1,123.78,282.58Z" style="fill:#263238"></path><path d="M124.83,286.53l1.46.28a.72.72,0,0,1-.85.61A.76.76,0,0,1,124.83,286.53Z" style="fill:#f28f8f"></path><path d="M128.53,280l-1.46-.37A.73.73,0,0,1,128,279,.79.79,0,0,1,128.53,280Z" style="fill:#263238"></path><path d="M128.27,281.34a.62.62,0,0,1-.49.73.64.64,0,1,1,.49-.73Z" style="fill:#263238"></path><polygon points="125.66 281.28 126.11 285.24 127.96 284.4 125.66 281.28" style="fill:#f28f8f"></polygon><path d="M124.82,290c-1.58,0-4.9-.35-5.6-1.52a3.35,3.35,0,0,0,1.38,1.42A16.85,16.85,0,0,0,125,291Z" style="fill:#f28f8f"></path><path d="M126.67,281.76a.88.88,0,0,0-.75-.18c-.41.12-1,.89-1,.89l-.47-.45a2.75,2.75,0,0,1,1.27-1.06,1.51,1.51,0,0,1,1.09.1Z" style="fill:#263238"></path><path d="M124.83,280.76c-.79-.9-1.62-1.05-3.53-.73s-2.86,1-3.14,2.25a3.57,3.57,0,0,0,7.08.83A3.29,3.29,0,0,0,124.83,280.76Z" style="fill:#3331E7"></path><path d="M121.82,285.54h-.19a2.69,2.69,0,0,1-2.21-1,2.89,2.89,0,0,1-.68-2.17c.18-.83.7-1.46,2.66-1.79.42-.07.77-.11,1.07-.13a2,2,0,0,1,1.92.67,3.05,3.05,0,0,1-2.57,4.39Z" style="fill:#263238"></path><path d="M126.42,280.72a2.88,2.88,0,0,1,2.34-2.65,2.17,2.17,0,0,1,2.86,1.4c.28,1.45.16,3.23-1.69,3.87C128.31,283.91,126.53,283,126.42,280.72Z" style="fill:#3331E7"></path><path d="M129.1,282.92a1.88,1.88,0,0,1-1.37-.45,2.52,2.52,0,0,1-.72-1.78c-.06-.72.64-1.67,1.92-2.05a2.43,2.43,0,0,1,.47-.08,1.45,1.45,0,0,1,1.63,1c.34,1.7-.1,2.78-1.3,3.19A2.3,2.3,0,0,1,129.1,282.92Z" style="fill:#263238"></path></g></g><g id="freepik--Sun--inject-18"><circle id="freepik--sun--inject-18" cx="289.66" cy="89.48" r="22.23" transform="translate(154.94 361.07) rotate(-80.78)" style="fill:#f0997a"></circle></g></svg>